<svg width="59" height="40" viewBox="0 0 59 40" fill="none" xmlns="http://www.w3.org/2000/svg">
<path d="M34.6106 6.06451C34.6106 6.06451 32.0342 5.91787 30.2917 4.24399C28.5492 2.56855 28.3019 1.28746e-05 28.3019 1.28746e-05C28.3019 1.28746e-05 30.8783 0.145092 32.62 1.82053C34.3625 3.49441 34.6106 6.06451 34.6106 6.06451Z" fill="#5D9C4D"/>
<path d="M39.9372 4.31977C38.0449 3.78781 36.1059 4.35799 34.5154 5.69803C32.9242 4.35799 30.986 3.78781 29.0937 4.31977C25.3957 5.36107 23.285 8.65345 24.3793 13.5815C25.4721 18.5103 29.7028 21.968 30.4743 22.1669C31.2449 22.3674 34.0607 21.2746 34.5154 20.9868C34.9694 21.2746 37.6783 22.4314 38.5566 22.1669C39.4349 21.9033 43.5588 18.5103 44.6515 13.5815C45.7451 8.65345 43.6336 5.36107 39.9372 4.31977Z" fill="#FF4E4F"/>
<path d="M44.0447 14.9817C43.3099 16.0839 42.5057 17.1345 41.8139 18.2663C40.6018 20.2514 38.0036 20.9947 35.9631 19.7998C35.4101 19.4753 34.9507 19.0307 34.6044 18.5151C33.4032 19.9737 31.911 21.1858 30.2215 22.0563C30.3253 22.1125 30.4126 22.1523 30.4743 22.1679C31.2449 22.3683 34.0607 21.2755 34.5154 20.9877C34.9694 21.2755 37.6783 22.4323 38.5566 22.1679C39.3912 21.9175 43.1539 18.8404 44.4643 14.307C44.3286 14.5363 44.1898 14.761 44.0447 14.9817Z" fill="#FF4E4F" fill-opacity="0.298039"/>
<path d="M17.662 6.58012C17.662 6.58012 19.6946 6.76264 21.25 5.65348C22.8045 4.54354 23.2943 2.56312 23.2943 2.56312C23.2943 2.56312 21.2617 2.38138 19.7071 3.49054C18.151 4.59814 17.662 6.58012 17.662 6.58012Z" fill="#5D9C4D"/>
<path d="M13.6957 4.60379C15.2377 4.40567 16.6893 5.07569 17.779 6.30575C19.1767 5.44073 20.7586 5.21765 22.1782 5.85101C24.9503 7.09043 26.2225 9.90858 24.7997 13.6378C23.3786 17.3662 19.6705 19.5853 19.0441 19.6523C18.4193 19.7194 16.3422 18.5424 16.0208 18.2647C15.6316 18.4371 13.379 19.0307 12.7238 18.7226C12.0663 18.4153 9.23094 15.2867 8.9439 11.3063C8.6553 7.32444 10.6849 4.99301 13.6957 4.60379Z" fill="#B6D177"/>
<path d="M10.5211 15.1059C10.5211 15.1059 7.94394 14.96 6.20142 13.2854C4.45968 11.6115 4.21164 9.04296 4.21164 9.04296C4.21164 9.04296 6.78796 9.18882 8.5297 10.8635C10.2714 12.5374 10.5211 15.1059 10.5211 15.1059Z" fill="#5D9C4D"/>
<path d="M15.8477 13.3623C13.9546 12.8295 12.0155 13.4005 10.4251 14.7406C8.8347 13.4005 6.89562 12.8295 5.00256 13.3623C1.30536 14.4036 -0.804543 17.696 0.288237 22.624C1.3818 27.5536 5.6133 31.0098 6.38394 31.2102C7.15458 31.4099 9.97116 30.3171 10.4251 30.0293C10.8791 30.3171 13.5888 31.4739 14.4663 31.2102C15.343 30.9458 19.4677 27.5536 20.5612 22.624C21.6548 17.696 19.5441 14.4036 15.8477 13.3623Z" fill="#FF4E4F"/>
<path d="M19.9544 24.0234C19.2204 25.1248 18.4146 26.1762 17.7243 27.308C16.5114 29.2931 13.9133 30.0372 11.8736 28.8415C11.3198 28.5178 10.8611 28.0724 10.5125 27.5568C9.31283 29.0146 7.82071 30.2283 6.13123 31.0972C6.23497 31.1549 6.32153 31.1947 6.38393 31.2103C7.15457 31.41 9.97115 30.3172 10.4251 30.0294C10.8791 30.3172 13.5888 31.474 14.4663 31.2103C15.3009 30.9592 19.0628 27.8828 20.374 23.3487C20.2391 23.578 20.1002 23.8034 19.9544 24.0234Z" fill="#FF4E4F" fill-opacity="0.298039"/>
<path d="M23.5205 14.1246C23.5205 14.1246 21.0526 14.8788 18.8398 13.9116C16.6246 12.9436 15.5029 10.6192 15.5029 10.6192C15.5029 10.6192 17.9701 9.86342 20.1853 10.8314C22.3989 11.7986 23.5205 14.1246 23.5205 14.1246Z" fill="#5D9C4D"/>
<path d="M27.9143 10.6438C25.9549 10.7998 24.3333 12.0049 23.3045 13.8145C21.3483 13.1071 19.3327 13.2428 17.7407 14.398C14.6332 16.6537 13.7916 20.4734 16.5239 24.7181C19.2547 28.9645 24.4222 30.7436 25.2147 30.6633C26.0064 30.5837 28.27 28.5846 28.5968 28.1572C29.1225 28.2703 32.0647 28.4177 32.7963 27.8662C33.5295 27.3148 36.2244 22.7034 35.5435 17.7013C34.8633 12.6991 31.7433 10.3404 27.9143 10.6438Z" fill="#EF3637"/>
<path d="M35.4577 19.2245C35.1504 20.5122 34.7596 21.7774 34.5022 23.0777C34.0521 25.3607 31.872 26.9574 29.5445 26.5424C28.9127 26.4301 28.3285 26.1711 27.8238 25.8077C27.2021 27.5923 26.2225 29.2451 24.9394 30.646C25.0556 30.6639 25.1507 30.671 25.2147 30.6639C26.0064 30.5844 28.27 28.5852 28.5968 28.1578C29.1225 28.2709 32.0647 28.4183 32.7963 27.8669C33.4928 27.3427 35.9576 23.1533 35.6183 18.446C35.5708 18.7081 35.5177 18.9678 35.4577 19.2245Z" fill="#FF4E4F" fill-opacity="0.298039"/>
<path d="M48.3916 13.6754C48.3916 13.6754 50.9687 13.5296 52.7105 11.8549C54.453 10.181 54.701 7.61248 54.701 7.61248C54.701 7.61248 52.1247 7.75756 50.383 9.433C48.6397 11.1061 48.3916 13.6754 48.3916 13.6754Z" fill="#5D9C4D"/>
<path d="M43.065 11.9324C44.9581 11.3997 46.8979 11.9707 48.4876 13.3115C50.078 11.9707 52.0171 11.3997 53.9094 11.9324C57.6073 12.9729 59.718 16.2661 58.6237 21.1941C57.5301 26.123 53.2994 29.5807 52.528 29.7788C51.7581 29.9793 48.9423 28.8881 48.4876 28.5995C48.0328 28.8881 45.3247 30.044 44.4456 29.7788C43.5681 29.516 39.4442 26.123 38.3507 21.1941C37.2579 16.2661 39.3686 12.9729 43.065 11.9324Z" fill="#EF3637"/>
<path d="M38.9583 22.5932C39.6931 23.6945 40.4965 24.7452 41.1891 25.8777C42.4012 27.8628 44.9986 28.607 47.0399 27.4112C47.5929 27.0875 48.0516 26.6421 48.3987 26.1266C49.5991 27.5844 51.092 28.7973 52.7807 29.667C52.6769 29.7239 52.5904 29.7645 52.528 29.7785C51.7581 29.979 48.9423 28.8878 48.4876 28.5992C48.0328 28.8878 45.3247 30.0437 44.4456 29.7785C43.6118 29.5289 39.8491 26.4526 38.5379 21.9185C38.6736 22.147 38.8125 22.3732 38.9583 22.5932Z" fill="#FF4E4F" fill-opacity="0.298039"/>
<path d="M41.3342 17.1974C41.3342 17.1974 39.3858 16.5866 38.3733 14.9666C37.3617 13.3465 37.6682 11.3295 37.6682 11.3295C37.6682 11.3295 39.6151 11.9386 40.6275 13.5603C41.6399 15.1795 41.3342 17.1974 41.3342 17.1974Z" fill="#5D9C4D"/>
<path d="M45.7544 16.889C44.4058 16.1152 42.8092 16.1784 41.3303 16.8976C40.3709 15.5638 38.9942 14.7518 37.4404 14.7939C34.4047 14.8774 32.1505 16.9935 32.0382 20.984C31.9227 24.9729 34.499 28.4408 35.0521 28.7426C35.6043 29.0453 37.9739 28.752 38.378 28.6186C38.6689 28.9267 40.5238 30.3385 41.2476 30.3042C41.9722 30.2714 45.7896 28.4673 47.5789 24.8996C49.369 21.3326 48.3869 18.4014 45.7544 16.889Z" fill="#B6D177"/>
<path fill-rule="evenodd" clip-rule="evenodd" d="M13.9211 38.0517C6.4409 35.225 2.04638 30.6269 1.30304 25.7839C19.6143 26.9414 37.9849 26.9757 56.421 25.7839C56.0395 28.3196 54.6418 30.8398 52.1497 33.1299C49.9454 35.1548 47.2372 37.2491 43.8856 38.0205C35.9452 39.8504 24.1804 40.171 13.9211 38.0517Z" fill="#C1D9ED"/>
</svg>
