<svg width="11" height="11" viewBox="0 0 11 11" fill="none" xmlns="http://www.w3.org/2000/svg">
<path fill-rule="evenodd" clip-rule="evenodd" d="M7.9864 8.00804L5.91708 9.10862L6.29927 10.0875L6.50208 9.7685L6.83357 9.80439L7.0512 9.47757L7.4412 9.48068L7.65725 9.15465L8.05036 9.15698L8.20716 8.8637L8.58545 8.87229L7.9864 8.00804Z" fill="#B2B2B2"/>
<path fill-rule="evenodd" clip-rule="evenodd" d="M0.907914 8.50217C0.132594 6.20429 2.74793 3.86663 2.62469 3.63263C2.62469 3.63263 2.17853 2.79335 1.96013 2.38151C2.26901 2.25281 2.64263 2.07887 3.05291 1.86905C3.64883 1.56641 4.20808 1.24583 4.63162 0.972834C4.85236 1.38545 5.29308 2.21537 5.29308 2.21537C5.4171 2.44781 8.81868 1.58981 10.289 3.51719C11.9863 5.74565 8.66813 7.51781 6.89831 8.45849C5.12927 9.39683 1.80335 11.1557 0.907914 8.50217Z" fill="#D4D2D6"/>
<path fill-rule="evenodd" clip-rule="evenodd" d="M1.94609 7.95172C1.09277 5.6944 3.19954 3.7561 3.07552 3.52288C3.07552 3.52288 2.60908 2.6446 2.37274 2.20078C2.58256 2.10406 2.81033 1.9933 3.05291 1.86928C3.48191 1.65166 3.89375 1.4239 4.24943 1.21018C4.48577 1.65634 4.94909 2.52839 4.94909 2.52839C5.07389 2.75926 7.8577 2.10016 9.25156 4.06966C10.8599 6.34414 8.27657 7.72396 6.89831 8.45872C5.52005 9.18958 2.92967 10.5569 1.94609 7.95172Z" fill="#E6E6E6"/>
<path fill-rule="evenodd" clip-rule="evenodd" d="M4.61059 8.40051C3.69877 6.72663 4.35865 5.08083 2.80489 1.99437C2.88601 1.95459 2.96868 1.91325 3.05292 1.86957C3.31344 1.73697 3.56849 1.60047 3.80795 1.46553C5.44439 4.37415 7.35851 5.03637 8.13149 6.53163C9.07139 8.34903 5.56687 10.1524 4.61059 8.40051Z" fill="#EFEFEF"/>
</svg>
