<svg width="44" height="21" viewBox="0 0 44 21" fill="none" xmlns="http://www.w3.org/2000/svg">
<path fill-rule="evenodd" clip-rule="evenodd" d="M19.0117 16.8405C17.5562 17.7726 16.7021 19.2905 16.5578 20.8887H27.2758C27.2017 20.0517 26.9303 19.2203 26.4451 18.4652C24.8422 15.9638 21.5116 15.236 19.0117 16.8405Z" fill="#C7E6FF"/>
<path d="M23.1707 0.0332003C24.4936 -0.21796 25.6253 1.01132 25.6955 2.77724C25.7665 4.54316 24.7509 6.18038 23.4281 6.43076C22.1052 6.68192 20.9742 5.45264 20.9032 3.68672C20.8322 1.9208 21.8478 0.28358 23.1707 0.0332003Z" fill="#7DC323"/>
<path fill-rule="evenodd" clip-rule="evenodd" d="M23.0716 0.399756C23.2144 0.263256 23.5739 0.235956 23.8727 0.340476C24.1714 0.444996 24.2993 0.642336 24.1566 0.779616C24.0146 0.916896 23.6551 0.943416 23.3555 0.838896C23.0568 0.734376 22.9289 0.537036 23.0716 0.399756Z" fill="#376C09"/>
<path d="M16.082 0.013186C17.2731 0.162166 17.8971 1.51391 17.4751 3.03179C17.0531 4.54967 15.7427 5.66117 14.5524 5.51219C13.3614 5.36321 12.7374 4.01147 13.1593 2.49359C13.5813 0.976486 14.891 -0.135014 16.082 0.013186Z" fill="#518F0B"/>
<path fill-rule="evenodd" clip-rule="evenodd" d="M15.8979 0.298427C16.0563 0.221207 16.3683 0.296867 16.5937 0.466907C16.8191 0.636947 16.8729 0.838188 16.7146 0.915408C16.5563 0.992628 16.2443 0.916968 16.0188 0.746928C15.7934 0.576888 15.7396 0.375647 15.8979 0.298427Z" fill="#376C09"/>
<path d="M3.83526 0.9034C5.4951 0.8839 6.60427 2.6194 6.31021 4.77766C6.01693 6.9367 4.43196 8.70574 2.77212 8.72602C1.11306 8.7463 0.00389503 7.0108 0.297175 4.85176C0.591235 2.69272 2.1762 0.92368 3.83526 0.9034Z" fill="#6EA222"/>
<path fill-rule="evenodd" clip-rule="evenodd" d="M3.63555 1.32799C3.83757 1.19227 4.28062 1.23673 4.62148 1.42783C4.96312 1.61893 5.07543 1.88413 4.87263 2.01985C4.67061 2.15635 4.22757 2.11111 3.88671 1.92001C3.54507 1.72969 3.43275 1.46371 3.63555 1.32799Z" fill="#376C09"/>
<path d="M4.87735 3.86754C5.77279 2.469 7.83275 2.49552 9.47465 3.92682C11.1173 5.35812 11.7242 7.65444 10.8295 9.05298C9.93407 10.4507 7.8741 10.425 6.2322 8.9937C4.58952 7.5624 3.98191 5.26608 4.87735 3.86754Z" fill="#7DC323"/>
<path fill-rule="evenodd" clip-rule="evenodd" d="M5.12225 4.2679C5.11991 4.02376 5.40071 3.679 5.74781 3.49882C6.09413 3.31786 6.37884 3.3709 6.38118 3.61504C6.38352 3.85918 6.10271 4.20394 5.75561 4.38412C5.40929 4.56508 5.12459 4.51204 5.12225 4.2679Z" fill="#376C09"/>
<path d="M10.5596 1.80774C11.7959 0.700142 13.774 1.27734 14.9729 3.0963C16.1717 4.91526 16.1421 7.29036 14.9058 8.39718C13.6687 9.50478 11.6914 8.92758 10.4926 7.10862C9.29292 5.28966 9.32333 2.91456 10.5596 1.80774Z" fill="#6EA222"/>
<path fill-rule="evenodd" clip-rule="evenodd" d="M10.6891 2.25838C10.7523 2.02282 11.115 1.7662 11.4972 1.68508C11.8786 1.60474 12.1383 1.7311 12.0752 1.96666C12.012 2.20222 11.6493 2.45884 11.2671 2.53996C10.8849 2.6203 10.6259 2.49394 10.6891 2.25838Z" fill="#376C09"/>
<path d="M14.5462 8.47391C13.2826 7.39829 13.5868 5.36093 15.2271 3.92729C16.8675 2.49365 19.2262 2.20271 20.4898 3.27911C21.7534 4.35473 21.4492 6.39131 19.8089 7.82495C18.1685 9.25859 15.8098 9.54953 14.5462 8.47391Z" fill="#7DC323"/>
<path fill-rule="evenodd" clip-rule="evenodd" d="M14.9752 8.28518C14.7326 8.25476 14.4292 7.93028 14.2982 7.56212C14.1671 7.19396 14.2584 6.92018 14.5002 6.9506C14.7428 6.9818 15.0462 7.30628 15.1772 7.67366C15.3083 8.04182 15.217 8.31638 14.9752 8.28518Z" fill="#376C09"/>
<path d="M17.6319 4.58081C17.869 2.93813 19.7558 2.11133 21.8431 2.73611C23.9304 3.36089 25.4326 5.20168 25.1955 6.84436C24.9576 8.48704 23.0708 9.31385 20.9835 8.68907C18.8963 8.06429 17.394 6.22349 17.6319 4.58081Z" fill="#6EA222"/>
<path fill-rule="evenodd" clip-rule="evenodd" d="M18.0195 4.84276C17.9174 4.62202 18.0305 4.19224 18.2723 3.8857C18.5133 3.57838 18.7941 3.50818 18.8963 3.72892C18.9984 3.95044 18.8853 4.37944 18.6443 4.68676C18.4025 4.99408 18.1225 5.0635 18.0195 4.84276Z" fill="#376C09"/>
<path d="M28.0823 1.56345C29.6798 2.01429 30.2515 3.99393 29.3584 5.98059C28.4653 7.96803 26.4435 9.21603 24.8461 8.76519C23.2494 8.31435 22.6769 6.33549 23.57 4.34805C24.4631 2.36061 26.4849 1.11339 28.0823 1.56345Z" fill="#6EA222"/>
<path fill-rule="evenodd" clip-rule="evenodd" d="M27.7704 1.91586C28.0028 1.84332 28.4146 2.0118 28.6876 2.29104C28.9606 2.57028 28.9934 2.85654 28.7602 2.92908C28.5269 3.00162 28.1151 2.83314 27.8421 2.5539C27.5691 2.27466 27.5371 1.9884 27.7704 1.91586Z" fill="#376C09"/>
<path d="M31.5518 3.65391C33.2038 3.81771 34.1141 5.66553 33.5837 7.77855C33.0533 9.89157 31.2827 11.475 29.6314 11.3104C27.9794 11.1466 27.0691 9.29955 27.5995 7.18575C28.1299 5.07273 29.9005 3.49011 31.5518 3.65391Z" fill="#6EA222"/>
<path fill-rule="evenodd" clip-rule="evenodd" d="M31.3076 4.05406C31.5237 3.94174 31.9581 4.03535 32.2756 4.26233C32.5938 4.49009 32.6757 4.76699 32.4589 4.87931C32.2428 4.99241 31.8084 4.89802 31.4909 4.67104C31.1727 4.44328 31.0908 4.16638 31.3076 4.05406Z" fill="#376C09"/>
<path d="M34.0735 2.83304C35.4354 1.88456 37.3277 2.69732 38.2972 4.6481C39.266 6.59966 38.9485 8.9537 37.5866 9.90218C36.2248 10.8507 34.3325 10.0379 33.3629 8.08712C32.3934 6.13556 32.7116 3.78152 34.0735 2.83304Z" fill="#7DC323"/>
<path fill-rule="evenodd" clip-rule="evenodd" d="M34.1468 3.29573C34.2381 3.07031 34.6296 2.85893 35.0181 2.82539C35.4073 2.79185 35.6499 2.94863 35.5578 3.17405C35.4666 3.39947 35.075 3.61085 34.6866 3.64439C34.2973 3.67871 34.0548 3.52193 34.1468 3.29573Z" fill="#376C09"/>
<path d="M42.0069 3.04825C43.5053 3.36337 44.155 5.14957 43.4561 7.03405C42.758 8.91931 40.9742 10.1946 39.4758 9.87871C37.9774 9.56281 37.3276 7.77739 38.0257 5.89213C38.7246 4.00765 40.5085 2.73235 42.0069 3.04825Z" fill="#6EA222"/>
<path fill-rule="evenodd" clip-rule="evenodd" d="M41.7409 3.39054C41.9507 3.30942 42.34 3.43889 42.6091 3.67991C42.8782 3.92015 42.9257 4.18223 42.7159 4.26413C42.5061 4.34525 42.1169 4.21577 41.8478 3.97475C41.5787 3.73451 41.5319 3.47244 41.7409 3.39054Z" fill="#376C09"/>
<path fill-rule="evenodd" clip-rule="evenodd" d="M10.0347 17.2377C4.08563 14.9905 0.59124 11.3339 0 7.48301C14.6663 8.21153 29.2734 8.15927 43.8329 7.48301C43.531 9.49931 42.4187 11.5039 40.436 13.3252C33.8785 19.3492 20.2589 21.1018 10.0347 17.2377Z" fill="#D7EDFF"/>
</svg>
