<svg width="76" height="44" viewBox="0 0 76 44" fill="none" xmlns="http://www.w3.org/2000/svg">
<path d="M37.5664 31.9747C56.3168 31.9747 66.4529 29.2518 75.132 25.2153C68.9193 19.9425 57.8815 16.1485 37.5664 16.1485C17.2481 16.1485 6.2127 19.9425 0 25.2153C8.67984 29.2518 18.8159 31.9747 37.5664 31.9747Z" fill="#EACBAA"/>
<path fill-rule="evenodd" clip-rule="evenodd" d="M17.1998 41.9184C7.01376 38.0699 1.02492 31.8112 0.00311829 25.2163C8.68062 29.2528 18.8175 31.975 37.5664 31.975C56.3129 31.975 66.4505 29.2528 75.1288 25.2163C74.6054 28.667 72.7014 32.0951 69.31 35.2112C66.3062 37.9708 62.6137 40.8256 58.0453 41.8779C47.2228 44.3707 31.1852 44.8083 17.1998 41.9184ZM75.1117 25.1983C75.1179 25.1983 75.1242 25.1976 75.132 25.1968C75.1304 25.203 75.1296 25.2085 75.1288 25.2132C75.1234 25.2085 75.1171 25.2038 75.1117 25.1983ZM0 25.1968C0.00702 25.1976 0.0148208 25.1983 0.0202808 25.1983C0.0148208 25.2038 0.00857276 25.2085 0.00233276 25.2132C0.00155276 25.2077 0.00078 25.2022 0 25.1968Z" fill="#C7E6FF"/>
<path d="M3.29239 21.9049C3.29239 21.9049 17.1358 2.68807 33.5018 2.14909C49.8646 1.61167 62.9905 10.3204 70.5159 21.6163C70.5159 21.6163 38.4236 33.977 3.29239 21.9049Z" fill="#EACBAA"/>
<path d="M41.854 14.7087C41.854 14.7087 40.5304 16.2492 40.2293 16.782C39.9259 17.3108 39.7925 17.5152 39.7192 17.9629C39.6724 18.2484 39.8775 18.7109 40.4882 18.8232C41.1013 18.9332 41.6723 18.1992 42.1138 17.5331C42.5631 16.8607 43.0123 15.7251 43.0295 15.1572C43.0474 14.58 42.6738 14.13 41.854 14.7087Z" fill="#FCF8F0"/>
<path d="M50.1837 18.2299C50.1837 18.2299 48.4364 17.233 47.8647 17.0458C47.2953 16.8586 47.073 16.7682 46.6339 16.7916C46.3546 16.8056 45.9584 17.1121 45.9896 17.7517C46.0145 18.3913 46.8336 18.8047 47.5636 19.1058C48.2976 19.4077 49.4715 19.6159 50.0159 19.5044C50.5627 19.3975 50.9091 18.9241 50.1837 18.2299Z" fill="#FCF8F0"/>
<path d="M60.1762 21.6143C60.1762 21.6143 59.1295 23.3716 58.922 23.9465C58.7137 24.5245 58.617 24.7476 58.617 25.2C58.6186 25.487 58.8994 25.9082 59.5195 25.9113C60.1411 25.9113 60.5818 25.0876 60.9079 24.3482C61.2331 23.6103 61.4874 22.4138 61.4078 21.8444C61.3267 21.2789 60.8852 20.8983 60.1762 21.6143Z" fill="#FCF8F0"/>
<path d="M39.8775 16.0733C39.8775 16.0733 37.8784 16.1435 37.298 16.2823C36.7138 16.4219 36.479 16.4609 36.1117 16.7144C35.8808 16.8751 35.6951 17.3454 36.0352 17.8797C36.3776 18.414 37.2863 18.3384 38.064 18.2105C38.8417 18.0818 39.9516 17.6395 40.365 17.2565C40.7831 16.8759 40.8447 16.287 39.8775 16.0733Z" fill="#FCF8F0"/>
<path d="M40.4836 21.7719C40.4836 21.7719 38.7746 20.9857 38.2333 20.8554C37.6927 20.7275 37.4821 20.6643 37.0836 20.7197C36.8308 20.7572 36.5048 21.0793 36.607 21.676C36.7053 22.2743 37.5001 22.5925 38.2036 22.8148C38.9025 23.0355 39.993 23.1323 40.482 22.9833C40.9656 22.8366 41.2254 22.3632 40.4836 21.7719Z" fill="#F9F2E3"/>
<path d="M39.4438 19.7314C39.4438 19.7314 41.2823 20.1089 41.8369 20.1104C42.3899 20.112 42.613 20.1276 42.989 19.9778C43.2261 19.885 43.471 19.495 43.2479 18.9365C43.0186 18.3781 42.1746 18.2494 41.4445 18.1932C40.7098 18.1363 39.6271 18.2954 39.1849 18.5504C38.7457 18.8047 38.5921 19.3258 39.4438 19.7314Z" fill="#F9F2E3"/>
<path d="M43.6239 23.7535C43.6239 23.7535 44.8758 22.3198 45.1597 21.83C45.4436 21.3409 45.5707 21.1498 45.6378 20.7435C45.6823 20.4861 45.4857 20.0664 44.8999 19.9837C44.3196 19.8979 43.783 20.5758 43.361 21.1982C42.9414 21.8191 42.517 22.8596 42.5038 23.3767C42.4929 23.8986 42.8485 24.2979 43.6239 23.7535Z" fill="#F9F2E3"/>
<path d="M46.4272 21.4285C46.4272 21.4285 48.2555 21.8458 48.8093 21.8622C49.3654 21.877 49.587 21.8942 49.9645 21.7569C50.2063 21.6695 50.4598 21.2897 50.2445 20.7218C50.0316 20.1602 49.1907 20.0113 48.4614 19.9387C47.7306 19.8654 46.6432 19.9964 46.194 20.2414C45.7486 20.4863 45.584 21.0011 46.4272 21.4285Z" fill="#F9F2E3"/>
<path d="M54.6991 26.9184C54.6991 26.9184 56.2255 25.7983 56.6085 25.3818C56.9884 24.9708 57.1514 24.8116 57.3019 24.431C57.4017 24.1861 57.2941 23.7345 56.7434 23.5231C56.1959 23.307 55.5259 23.8522 54.9845 24.3639C54.4432 24.8733 53.8098 25.7983 53.6874 26.2999C53.5665 26.8077 53.8309 27.2757 54.6991 26.9184Z" fill="#F9F2E3"/>
<path d="M47.0621 24.6989C47.0621 24.6989 45.2634 23.8012 44.6839 23.6459C44.1059 23.4915 43.8813 23.4143 43.4406 23.4619C43.166 23.4931 42.7877 23.8207 42.8462 24.4587C42.9063 25.096 43.7463 25.4602 44.4959 25.7192C45.2416 25.9813 46.4233 26.1224 46.963 25.9813C47.5036 25.844 47.8242 25.3541 47.0621 24.6989Z" fill="#FCF8F0"/>
<path d="M44.1285 26.5395C44.1285 26.5395 43.1956 24.7182 42.822 24.2401C42.4453 23.7619 42.3088 23.5583 41.9273 23.3298C41.6887 23.1847 41.1918 23.2183 40.8728 23.7689C40.5577 24.3181 41.0194 25.1246 41.4711 25.7923C41.9219 26.4568 42.7931 27.293 43.3095 27.5122C43.8212 27.7313 44.3625 27.5309 44.1285 26.5395Z" fill="#FCF8F0"/>
<path d="M45.7587 26.5511C45.7587 26.5511 43.8836 26.5511 43.3407 26.6595C42.7963 26.7679 42.574 26.7968 42.2331 27.0183C42.021 27.1579 41.8501 27.5877 42.1777 28.0885C42.5069 28.5939 43.3571 28.551 44.0841 28.4598C44.8157 28.3685 45.8492 27.998 46.2322 27.6587C46.6198 27.3194 46.6713 26.782 45.7587 26.5511Z" fill="#F9F2E3"/>
<path d="M47.1331 28.2808C47.1331 28.2808 48.4513 26.9111 48.7578 26.4353C49.0659 25.9595 49.2001 25.7778 49.2882 25.3714C49.342 25.1164 49.165 24.6905 48.5878 24.5758C48.0113 24.4643 47.4412 25.1156 46.9888 25.7131C46.5411 26.3121 46.0707 27.33 46.0317 27.8479C45.9974 28.3697 46.3336 28.7863 47.1331 28.2808Z" fill="#F9F2E3"/>
<path d="M48.9318 22.9439C48.9318 22.9439 50.4192 24.1193 50.9153 24.3752C51.4122 24.631 51.6025 24.7457 52.0034 24.7855C52.2561 24.8089 52.6438 24.5749 52.6789 23.9727C52.721 23.3666 52.019 22.8659 51.3888 22.479C50.7554 22.0984 49.7157 21.7411 49.2118 21.7676C48.7071 21.7926 48.3468 22.1881 48.9318 22.9439Z" fill="#F9F2E3"/>
<path d="M51.6625 23.2308C51.6625 23.2308 53.5166 23.528 54.0688 23.5046C54.625 23.4851 54.8449 23.4906 55.2154 23.3236C55.4494 23.2199 55.6772 22.8244 55.4276 22.2753C55.1811 21.7262 54.3356 21.6334 53.5977 21.6108C52.8676 21.5866 51.7897 21.7894 51.3583 22.0616C50.927 22.3354 50.7975 22.8611 51.6625 23.2308Z" fill="#F9F2E3"/>
<path d="M58.5632 24.2873C58.5632 24.2873 56.8012 23.3138 56.231 23.1368C55.6608 22.9558 55.433 22.8677 54.9939 22.8981C54.717 22.9176 54.327 23.2304 54.3621 23.8692C54.3972 24.508 55.2256 24.9089 55.9588 25.1999C56.6943 25.4924 57.8682 25.6827 58.4142 25.5672C58.9617 25.4487 59.2987 24.9737 58.5632 24.2873Z" fill="#FCF8F0"/>
<path d="M69.4005 21.6724C69.4005 21.6724 67.4022 21.7255 66.8164 21.8573C66.2329 21.9915 65.9997 22.0305 65.6308 22.2769C65.3983 22.4345 65.208 22.9056 65.5458 23.443C65.8819 23.9805 66.7938 23.9118 67.5706 23.7925C68.3514 23.6708 69.4637 23.2371 69.881 22.8604C70.3006 22.4821 70.3693 21.894 69.4005 21.6724Z" fill="#FCF8F0"/>
<path d="M53.2725 25.2915C53.2725 25.2915 51.4535 24.4413 50.867 24.2985C50.2898 24.1589 50.0604 24.0872 49.6268 24.1472C49.3475 24.1847 48.9762 24.5247 49.0558 25.1589C49.1338 25.793 49.9754 26.1378 50.7312 26.378C51.4839 26.6206 52.6688 26.7298 53.2046 26.5761C53.7413 26.4248 54.0501 25.9256 53.2725 25.2915Z" fill="#FCF8F0"/>
<path d="M63.9592 25.5616C63.9592 25.5616 65.0091 23.9618 65.2267 23.4345C65.4412 22.9104 65.5387 22.706 65.5512 22.2903C65.5606 22.0297 65.3079 21.6436 64.7213 21.6436C64.1324 21.6405 63.6909 22.3932 63.3563 23.0671C63.0248 23.7395 62.7432 24.8299 62.8009 25.3494C62.8594 25.8666 63.265 26.2113 63.9592 25.5616Z" fill="#F9F2E3"/>
<path d="M67.1822 20.0668C67.1822 20.0668 69.0464 20.2743 69.5971 20.222C70.1485 20.1783 70.3724 20.1706 70.7335 19.9888C70.9621 19.8742 71.1727 19.4639 70.8997 18.9296C70.629 18.3937 69.7757 18.3399 69.0417 18.3532C68.3077 18.3641 67.2391 18.6199 66.8226 18.914C66.4061 19.2088 66.3008 19.7392 67.1822 20.0668Z" fill="#F9F2E3"/>
<path d="M64.0973 20.6237C64.0973 20.6237 65.7501 21.5363 66.2797 21.7032C66.8086 21.8709 67.0168 21.9528 67.4185 21.9232C67.6736 21.9052 68.0152 21.6088 67.9575 21.0028C67.9029 20.4037 67.1291 20.0262 66.4443 19.754C65.761 19.4802 64.6784 19.3055 64.1839 19.4162C63.6909 19.5286 63.3968 19.9794 64.0973 20.6237Z" fill="#F9F2E3"/>
<path d="M33.4363 24.6519C33.4363 24.6519 31.636 23.7534 31.0557 23.6005C30.4785 23.4414 30.2523 23.3673 29.8139 23.4141C29.5363 23.4437 29.1603 23.7744 29.2196 24.4086C29.2828 25.0458 30.1197 25.4132 30.8677 25.6722C31.6157 25.9342 32.7967 26.0731 33.3372 25.9342C33.877 25.7954 34.1983 25.3048 33.4363 24.6519Z" fill="#FCF8F0"/>
<path d="M37.8175 25.6899C37.8175 25.6899 35.8191 25.7593 35.2373 25.8997C34.6577 26.0362 34.4222 26.0784 34.0517 26.3295C33.8224 26.4902 33.6367 26.9637 33.9791 27.4972C34.32 28.0315 35.2279 27.9535 36.0079 27.8256C36.7871 27.6984 37.8924 27.2546 38.3105 26.8747C38.7247 26.4925 38.7863 25.9044 37.8175 25.6899Z" fill="#FCF8F0"/>
<path d="M29.6977 25.5073C29.6977 25.5073 27.7017 25.5728 27.1198 25.7132C26.5348 25.8528 26.3024 25.8934 25.935 26.1461C25.7026 26.3076 25.5177 26.7763 25.8586 27.313C26.2002 27.8457 27.1097 27.7677 27.8873 27.6398C28.6658 27.5142 29.7757 27.0704 30.1915 26.6905C30.6088 26.3076 30.6696 25.7187 29.6977 25.5073Z" fill="#FCF8F0"/>
<path d="M32.3216 27.1485C32.3216 27.1485 30.6095 26.3623 30.0698 26.2344C29.5331 26.1057 29.3194 26.0394 28.9177 26.0971C28.6674 26.1353 28.3436 26.4559 28.4435 27.0534C28.5441 27.6493 29.3374 27.9707 30.0394 28.1898C30.7421 28.4106 31.8295 28.5065 32.3178 28.3583C32.8029 28.2125 33.0619 27.7413 32.3216 27.1485Z" fill="#F9F2E3"/>
<path d="M32.6157 28.9299C32.6157 28.9299 33.937 27.5563 34.2436 27.0829C34.5486 26.6094 34.6835 26.4277 34.7701 26.0228C34.8278 25.7647 34.65 25.3419 34.072 25.2257C33.4924 25.1118 32.9246 25.7647 32.4784 26.3637C32.0268 26.9627 31.5557 27.9791 31.5175 28.4993C31.4824 29.0173 31.8147 29.4338 32.6157 28.9299Z" fill="#F9F2E3"/>
<path d="M40.3135 22.4097C40.3135 22.4097 39.0281 23.8169 38.7356 24.2981C38.44 24.7825 38.3105 24.9705 38.2341 25.3745C38.1841 25.6327 38.3745 26.0531 38.954 26.1498C39.5335 26.2481 40.0873 25.582 40.521 24.9713C40.9563 24.3597 41.4016 23.327 41.4235 22.8107C41.4477 22.2888 41.0982 21.8817 40.3135 22.4097Z" fill="#F9F2E3"/>
<path d="M9.14003 19.5757C9.14003 19.5757 7.34917 18.6608 6.77275 18.5009C6.19243 18.3387 5.96777 18.2591 5.52941 18.3028C5.25329 18.3309 4.86953 18.6553 4.92803 19.2934C4.98029 19.9283 5.81957 20.3035 6.56135 20.5726C7.30781 20.8401 8.4864 20.9891 9.03084 20.8557C9.56982 20.7255 9.89429 20.2364 9.14003 19.5757Z" fill="#FCF8F0"/>
<path d="M15.1367 19.8162C15.1367 19.8162 13.1383 19.8864 12.5588 20.026C11.9785 20.1649 11.7413 20.2054 11.3732 20.4589C11.1431 20.6157 10.9567 21.0892 11.296 21.6235C11.6415 22.1578 12.5463 22.0813 13.3263 21.9526C14.1071 21.8255 15.2131 21.3809 15.6328 21.001C16.0454 20.6181 16.1086 20.0292 15.1367 19.8162Z" fill="#FCF8F0"/>
<path d="M5.26423 20.0898C5.26423 20.0898 3.26743 20.1959 2.68477 20.3456C2.10601 20.4946 1.87124 20.5391 1.5101 20.7972C1.28156 20.9618 1.10059 21.44 1.45471 21.9665C1.80181 22.4937 2.7113 22.3994 3.48662 22.2613C4.26116 22.1193 5.36485 21.6568 5.77513 21.2684C6.18385 20.8791 6.23299 20.2895 5.26423 20.0898Z" fill="#FCF8F0"/>
<path d="M22.1551 26.9262C22.1551 26.9262 24.0256 26.9901 24.5708 26.8989C25.1199 26.8099 25.343 26.785 25.6893 26.5767C25.9101 26.4457 26.0903 26.0206 25.7783 25.5073C25.4686 24.9957 24.6129 25.0089 23.8852 25.0744C23.1536 25.1431 22.106 25.48 21.7129 25.8053C21.319 26.1329 21.2488 26.6688 22.1551 26.9262Z" fill="#F9F2E3"/>
<path d="M68.0807 21.4706C68.0807 21.4706 70.0783 21.6352 70.6711 21.565C71.2662 21.494 71.5026 21.4823 71.8918 21.2732C72.1406 21.1414 72.3809 20.6921 72.0978 20.1259C71.8162 19.5541 70.9067 19.5245 70.1189 19.5604C69.3295 19.5994 68.1782 19.9059 67.7251 20.2366C67.2672 20.5658 67.144 21.1446 68.0807 21.4706Z" fill="#FCF8F0"/>
<path d="M21.5436 21.789C21.5436 21.789 19.7715 22.7476 19.3066 23.1337C18.8425 23.5174 18.6451 23.661 18.4236 24.0525C18.2832 24.2998 18.3121 24.8083 18.8456 25.1383C19.3776 25.4635 20.1622 24.9877 20.8135 24.5244C21.4602 24.0603 22.2721 23.1633 22.482 22.6353C22.6965 22.1056 22.5054 21.5479 21.5436 21.789Z" fill="#FCF8F0"/>
<path d="M9.6876 20.9744C9.6876 20.9744 7.69001 21.0407 7.11047 21.1788C6.52625 21.3184 6.28756 21.3605 5.92252 21.6132C5.69242 21.7755 5.50446 22.245 5.84766 22.7801C6.1893 23.3113 7.09877 23.2356 7.87409 23.11C8.65331 22.9813 9.76481 22.5399 10.1806 22.1577C10.5947 21.7762 10.6564 21.1881 9.6876 20.9744Z" fill="#FCF8F0"/>
<path d="M12.0963 24.2159C12.0963 24.2159 10.3865 23.4266 9.8491 23.2986C9.30466 23.1699 9.09249 23.1044 8.69391 23.1614C8.44275 23.1972 8.11827 23.5225 8.21733 24.1161C8.31795 24.7159 9.11198 25.0326 9.81554 25.2541C10.5175 25.4772 11.6064 25.5723 12.0939 25.421C12.5791 25.2783 12.838 24.804 12.0963 24.2159Z" fill="#F9F2E3"/>
<path d="M12.8084 24.8139C12.8084 24.8139 14.1274 23.4435 14.4332 22.9669C14.7413 22.4942 14.8746 22.3125 14.9651 21.9069C15.0205 21.6518 14.8403 21.2275 14.2631 21.1113C13.6851 20.9974 13.1173 21.6495 12.668 22.2462C12.218 22.8476 11.7468 23.8631 11.7078 24.3842C11.6735 24.9036 12.0112 25.3194 12.8084 24.8139Z" fill="#F9F2E3"/>
<path d="M15.9658 20.5681C15.9658 20.5681 16.6788 22.3543 16.9845 22.8301C17.2895 23.3059 17.4034 23.5024 17.7302 23.7427C17.9377 23.8963 18.3869 23.8909 18.7153 23.387C19.0414 22.8847 18.6779 22.0875 18.3144 21.4315C17.9556 20.7717 17.2248 19.9292 16.7739 19.6929C16.3246 19.4566 15.8231 19.6157 15.9658 20.5681Z" fill="#F9F2E3"/>
<path d="M26.5489 18.9137C26.5489 18.9137 24.5638 18.6735 23.9686 18.7203C23.3735 18.7687 23.1317 18.7749 22.7355 18.9652C22.482 19.0853 22.2308 19.5245 22.489 20.1064C22.7503 20.6867 23.659 20.7506 24.4483 20.7452C25.2369 20.7405 26.396 20.4745 26.8624 20.1602C27.3289 19.849 27.4771 19.2749 26.5489 18.9137Z" fill="#FCF8F0"/>
<path d="M34.3325 20.845C34.3325 20.845 32.5861 21.8488 32.1345 22.2474C31.6797 22.646 31.4871 22.7965 31.2741 23.192C31.1392 23.4408 31.186 23.9517 31.7273 24.266C32.2663 24.5757 33.0408 24.0781 33.675 23.596C34.3107 23.1171 35.1008 22.1983 35.2997 21.6616C35.4978 21.1265 35.2903 20.5743 34.3325 20.845Z" fill="#FCF8F0"/>
<path d="M24.0778 20.126C24.0778 20.126 22.0826 20.1946 21.4976 20.3311C20.9157 20.4723 20.6817 20.5121 20.3128 20.7648C20.0834 20.9239 19.8962 21.3974 20.2363 21.9317C20.5803 22.4644 21.4906 22.3887 22.2682 22.2632C23.0467 22.1313 24.1558 21.6891 24.57 21.3077C24.9873 20.9247 25.0458 20.3366 24.0778 20.126Z" fill="#FCF8F0"/>
<path d="M25.8133 23.5035C25.8133 23.5035 24.1028 22.7157 23.5599 22.5886C23.0225 22.4591 22.8088 22.3936 22.411 22.4529C22.159 22.488 21.8361 22.8132 21.9352 23.4099C22.0342 24.0035 22.8283 24.3233 23.5287 24.5472C24.2307 24.7671 25.3227 24.8607 25.8102 24.7164C26.2961 24.5675 26.552 24.0948 25.8133 23.5035Z" fill="#F9F2E3"/>
<path d="M27.0535 24.2096C27.0535 24.2096 26.8094 22.2978 26.6355 21.7557C26.4545 21.2136 26.3991 20.9952 26.1456 20.6762C25.981 20.4734 25.5458 20.358 25.1043 20.7573C24.6636 21.1559 24.8118 22.0209 24.999 22.7518C25.1839 23.4858 25.6753 24.492 26.0512 24.843C26.428 25.1877 26.9529 25.1706 27.0535 24.2096Z" fill="#F9F2E3"/>
<path d="M31.5978 21.319C31.5978 21.319 33.4324 20.9399 33.9464 20.72C34.4604 20.5063 34.671 20.4329 34.962 20.1451C35.1445 19.9673 35.2295 19.5086 34.8122 19.0835C34.3941 18.6569 33.5681 18.8706 32.8708 19.1085C32.1743 19.348 31.2297 19.9197 30.9208 20.3284C30.6057 20.7395 30.6611 21.2793 31.5978 21.319Z" fill="#F9F2E3"/>
<path d="M33.8162 18.0882C33.8162 18.0882 34.5884 19.8471 34.9082 20.3112C35.2295 20.7792 35.3481 20.9734 35.6819 21.2012C35.8956 21.3447 36.3426 21.3244 36.653 20.8112C36.9634 20.2956 36.5774 19.5163 36.1936 18.8682C35.8122 18.2254 35.0548 17.408 34.5962 17.1841C34.1406 16.9642 33.643 17.1397 33.8162 18.0882Z" fill="#F9F2E3"/>
<path d="M15.4066 12.5506C15.4066 12.5506 13.6087 11.6552 13.0284 11.4976C12.4504 11.3416 12.2234 11.2652 11.7843 11.3135C11.5058 11.3432 11.1306 11.6708 11.1922 12.3096C11.25 12.9461 12.0931 13.3103 12.838 13.5716C13.5853 13.8322 14.7662 13.9726 15.3067 13.8337C15.8465 13.6941 16.1686 13.2035 15.4066 12.5506Z" fill="#FCF8F0"/>
<path d="M11.5799 13.6842C11.5799 13.6842 9.58077 13.7536 9.00123 13.8947C8.41467 14.0312 8.18067 14.071 7.81407 14.323C7.58553 14.4852 7.39677 14.9571 7.73997 15.4914C8.07849 16.0242 8.99186 15.9485 9.76952 15.8182C10.5472 15.6927 11.654 15.2504 12.0713 14.869C12.4878 14.4875 12.5463 13.8994 11.5799 13.6842Z" fill="#FCF8F0"/>
<path d="M14.4838 17.342C14.4838 17.342 12.774 16.5519 12.2335 16.4271C11.6914 16.2937 11.4808 16.2313 11.083 16.2875C10.8311 16.328 10.5058 16.6502 10.6064 17.2453C10.7047 17.8405 11.4988 18.161 12.2015 18.3818C12.9051 18.6072 13.9955 18.6977 14.4807 18.5534C14.9651 18.4044 15.2256 17.9348 14.4838 17.342Z" fill="#F9F2E3"/>
<path d="M9.02617 14.9983C9.02617 14.9983 7.42248 15.9928 7.0122 16.3774C6.60192 16.758 6.42799 16.9023 6.24625 17.2705C6.13159 17.5068 6.20336 17.9631 6.73532 18.2213C7.26884 18.4795 7.97552 17.9881 8.5535 17.5216C9.13148 17.0536 9.8327 16.1863 9.99026 15.6925C10.1494 15.1972 9.92239 14.709 9.02617 14.9983Z" fill="#F9F2E3"/>
<path d="M20.8518 21.6916C20.8518 21.6916 19.5913 20.2618 19.1467 19.9225C18.7029 19.5832 18.5313 19.4327 18.1459 19.3235C17.9018 19.2502 17.4783 19.4132 17.3347 20.0021C17.1959 20.5886 17.7996 21.208 18.3573 21.7009C18.9119 22.197 19.8744 22.7336 20.3783 22.7999C20.8806 22.8655 21.2987 22.5402 20.8518 21.6916Z" fill="#F9F2E3"/>
<path d="M21.5662 18.9059C21.5662 18.9059 23.4242 18.6586 23.9515 18.4784C24.4764 18.2967 24.6924 18.2366 25.0021 17.9746C25.1979 17.8069 25.3087 17.3576 24.921 16.9021C24.5349 16.4489 23.6933 16.6049 22.9835 16.7913C22.2752 16.9832 21.2971 17.4886 20.9555 17.8732C20.6185 18.2624 20.6349 18.8037 21.5662 18.9059Z" fill="#F9F2E3"/>
<path d="M20.6957 18.0383C20.6957 18.0383 18.986 17.2513 18.4478 17.1226C17.9057 16.9923 17.6919 16.9284 17.2934 16.9853C17.043 17.0227 16.7193 17.3449 16.8199 17.9416C16.9182 18.5383 17.7138 18.8542 18.4181 19.0804C19.1155 19.3042 20.2098 19.3947 20.6934 19.2481C21.1762 19.1007 21.4383 18.6303 20.6957 18.0383Z" fill="#F9F2E3"/>
<path d="M13.4597 16.7164C13.4597 16.7164 15.3255 16.8748 15.8761 16.81C16.4276 16.7461 16.6491 16.7336 17.0048 16.544C17.2302 16.4216 17.4338 16.0066 17.1452 15.4801C16.8605 14.9521 16.0087 14.9201 15.2748 14.9544C14.54 14.9833 13.4831 15.2687 13.0736 15.5706C12.6633 15.8756 12.5682 16.4099 13.4597 16.7164Z" fill="#F9F2E3"/>
<path d="M16.1593 13.5731C16.1593 13.5731 16.8777 15.3554 17.1834 15.8305C17.4907 16.307 17.6023 16.5044 17.9307 16.7438C18.1413 16.8967 18.5874 16.8889 18.9158 16.3866C19.2395 15.8819 18.8713 15.0879 18.5125 14.4319C18.1475 13.7728 17.419 12.9296 16.9697 12.6956C16.5173 12.4601 16.0158 12.62 16.1593 13.5731Z" fill="#F9F2E3"/>
<path d="M7.44901 18.248C7.44901 18.248 9.31713 18.4032 9.86469 18.34C10.4169 18.2776 10.64 18.2652 10.9941 18.0733C11.2203 17.9547 11.4255 17.539 11.1361 17.0117C10.8483 16.4813 9.99806 16.4524 9.26486 16.4829C8.52932 16.5156 7.47164 16.7964 7.06058 17.1022C6.64874 17.4079 6.55747 17.9415 7.44901 18.248Z" fill="#F9F2E3"/>
<path d="M20.4594 13.9518C20.4594 13.9518 22.2495 13.3801 22.7355 13.1063C23.2245 12.8341 23.425 12.7366 23.6871 12.4246C23.8532 12.2241 23.8883 11.7631 23.4312 11.3833C22.9726 11.0042 22.1707 11.3053 21.5054 11.6188C20.833 11.9301 19.9563 12.6032 19.6849 13.0408C19.4165 13.4846 19.5265 14.0142 20.4594 13.9518Z" fill="#F9F2E3"/>
<path d="M28.7282 10.9729C28.7282 10.9729 26.7298 10.8777 26.1402 10.9713C25.5489 11.0602 25.3102 11.0836 24.9265 11.3028C24.6831 11.4448 24.4624 11.9003 24.7627 12.4627C25.0599 13.0204 25.9732 13.0165 26.7579 12.9517C27.5426 12.8893 28.683 12.5383 29.1268 12.192C29.5714 11.8457 29.6759 11.2638 28.7282 10.9729Z" fill="#FCF8F0"/>
<path d="M36.5906 15.4144C36.5906 15.4144 34.7225 14.671 34.136 14.5649C33.5478 14.4604 33.3138 14.4035 32.8809 14.4885C32.6087 14.5384 32.2561 14.9019 32.3669 15.5314C32.48 16.16 33.3474 16.4541 34.1118 16.6507C34.8754 16.8457 36.0672 16.8847 36.5929 16.6998C37.121 16.5181 37.401 15.9986 36.5906 15.4144Z" fill="#FCF8F0"/>
<path d="M26.2135 13.8947C26.2135 13.8947 24.6636 12.5937 24.1363 12.3043C23.6098 12.0173 23.4047 11.8862 22.9679 11.8293C22.6918 11.7919 22.2495 12.0235 22.166 12.6553C22.0841 13.2902 22.8189 13.8448 23.485 14.2754C24.1543 14.7067 25.272 15.1248 25.832 15.1193C26.3874 15.11 26.8086 14.7106 26.2135 13.8947Z" fill="#FCF8F0"/>
<path d="M22.8306 13.3978C22.8306 13.3978 21.0499 14.333 20.5803 14.7152C20.1131 15.0935 19.9142 15.2355 19.6864 15.6255C19.5468 15.8704 19.5702 16.3789 20.1014 16.7143C20.6326 17.0474 21.4235 16.5794 22.0717 16.1223C22.7269 15.6668 23.5451 14.7791 23.7658 14.2519C23.9827 13.7269 23.7947 13.1645 22.8306 13.3978Z" fill="#FCF8F0"/>
<path d="M26.7049 15.9895C26.7049 15.9895 24.9936 15.2009 24.4538 15.0738C23.9141 14.9435 23.698 14.8796 23.3017 14.935C23.0514 14.9747 22.7269 15.2977 22.8275 15.8928C22.925 16.4887 23.7206 16.8093 24.4242 17.0293C25.1238 17.2523 26.2135 17.3452 26.7002 17.2016C27.1869 17.0519 27.4475 16.58 26.7049 15.9895Z" fill="#F9F2E3"/>
<path d="M27.0894 15.2076C27.0894 15.2076 28.9575 15.0867 29.4926 14.9409C30.0277 14.7958 30.2461 14.7521 30.5737 14.5111C30.7819 14.3574 30.9231 13.9191 30.562 13.4386C30.2071 12.9558 29.3608 13.0533 28.6393 13.1929C27.9162 13.3325 26.9061 13.7732 26.5465 14.1336C26.1815 14.4971 26.162 15.0376 27.0894 15.2076Z" fill="#F9F2E3"/>
<path d="M38.0344 12.7703C38.0344 12.7703 38.156 14.6969 38.2996 15.2492C38.44 15.8006 38.4813 16.0245 38.7184 16.3607C38.8674 16.572 39.2964 16.7171 39.7652 16.3497C40.2269 15.9785 40.131 15.1064 39.993 14.3646C39.858 13.6213 39.4298 12.5816 39.0749 12.2087C38.7239 11.8359 38.195 11.8187 38.0344 12.7703Z" fill="#F9F2E3"/>
<path d="M30.5495 8.41113C30.5495 8.41113 29.3631 6.75441 28.9209 6.33945C28.4817 5.92371 28.3164 5.74665 27.9061 5.58051C27.6479 5.47521 27.1635 5.58441 26.928 6.17643C26.6963 6.76845 27.2727 7.49697 27.8164 8.08431C28.36 8.67477 29.3452 9.36273 29.8818 9.50079C30.4255 9.63417 30.9309 9.35649 30.5495 8.41113Z" fill="#FCF8F0"/>
<path d="M45.6449 12.9209C45.6449 12.9209 44.0732 14.1947 43.6839 14.6627C43.2971 15.1275 43.1301 15.3085 42.9796 15.7336C42.8868 16.0011 43.0069 16.498 43.588 16.7187C44.1706 16.941 44.8594 16.3256 45.4124 15.7445C45.9654 15.1689 46.6105 14.1346 46.7197 13.573C46.839 13.013 46.5497 12.5021 45.6449 12.9209Z" fill="#FCF8F0"/>
<path d="M34.5072 11.4144C34.5072 11.4144 32.5627 11.8941 32.0182 12.1539C31.4777 12.4058 31.2515 12.4947 30.9442 12.82C30.7484 13.022 30.6579 13.5251 31.0932 13.9783C31.5339 14.4307 32.4067 14.1663 33.1453 13.8831C33.8848 13.5992 34.884 12.9354 35.2178 12.4744C35.5516 12.0174 35.5002 11.4285 34.5072 11.4144Z" fill="#FCF8F0"/>
<path d="M18.9595 7.01951C18.9595 7.01951 16.9588 7.08737 16.3777 7.22699C15.7958 7.36583 15.5595 7.40638 15.1952 7.65676C14.9635 7.81666 14.7756 8.29012 15.1188 8.82598C15.4596 9.36106 16.3676 9.28073 17.1468 9.15281C17.9276 9.02645 19.0328 8.58419 19.4509 8.20043C19.8651 7.82135 19.9259 7.23167 18.9595 7.01951Z" fill="#FCF8F0"/>
<path d="M20.8752 5.65127C20.8752 5.65127 19.5024 7.14887 19.1802 7.66913C18.8659 8.18939 18.7224 8.38985 18.635 8.83523C18.5804 9.11603 18.773 9.58949 19.3775 9.71819C19.9859 9.84923 20.5803 9.13553 21.0444 8.48189C21.5124 7.82669 21.9976 6.70505 22.0334 6.13409C22.0662 5.56235 21.709 5.09903 20.8752 5.65127Z" fill="#FCF8F0"/>
<path d="M24.0692 10.3748C24.0692 10.3748 22.3556 9.58937 21.8182 9.46067C21.2792 9.33197 21.0623 9.26801 20.6669 9.32339C20.4157 9.36161 20.0944 9.68298 20.1926 10.282C20.2917 10.8772 21.0858 11.197 21.7878 11.4146C22.489 11.6377 23.5802 11.7336 24.0653 11.5854C24.5482 11.4395 24.8095 10.9684 24.0692 10.3748Z" fill="#F9F2E3"/>
<path d="M39.8721 13.7147C39.8721 13.7147 38.16 12.9269 37.6218 12.7982C37.0828 12.6703 36.8667 12.6063 36.4689 12.6609C36.217 12.6991 35.8925 13.0205 35.9962 13.6164C36.0945 14.2147 36.8893 14.5345 37.5882 14.7537C38.291 14.9791 39.3807 15.0719 39.8689 14.9221C40.3541 14.7778 40.6123 14.3059 39.8721 13.7147Z" fill="#F9F2E3"/>
<path d="M54.9089 13.6003C54.9089 13.6003 53.561 14.9403 53.2444 15.4091C52.9269 15.8763 52.7896 16.0573 52.6921 16.4598C52.6321 16.714 52.8037 17.1438 53.3793 17.2694C53.9518 17.3965 54.5353 16.7569 54.9986 16.168C55.4564 15.5799 55.9502 14.5737 55.9978 14.0527C56.0485 13.5355 55.7193 13.1128 54.9089 13.6003Z" fill="#F9F2E3"/>
<path d="M59.6006 9.2634C59.6006 9.2634 59.0242 11.0995 58.9548 11.665C58.8869 12.2321 58.8487 12.4606 58.9462 12.8608C59.0101 13.115 59.3564 13.4114 59.9219 13.2437C60.4828 13.0784 60.7074 12.2305 60.8501 11.4903C60.9898 10.7454 60.9648 9.61829 60.7675 9.13937C60.574 8.65655 60.092 8.44206 59.6006 9.2634Z" fill="#F9F2E3"/>
<path d="M16.2396 9.31183C16.2396 9.31183 14.3684 9.41401 13.8302 9.55285C13.2967 9.69481 13.0744 9.73693 12.746 9.97483C12.5385 10.1269 12.3927 10.5653 12.7476 11.0505C13.1017 11.5341 13.9511 11.4444 14.6749 11.3102C15.3941 11.1753 16.4073 10.7486 16.7739 10.3882C17.1405 10.0271 17.1608 9.48655 16.2396 9.31183Z" fill="#F9F2E3"/>
<path d="M14.0353 11.5458C14.0353 11.5458 12.9277 13.1058 12.6929 13.6253C12.4621 14.1378 12.3544 14.3406 12.3271 14.7532C12.3123 15.0168 12.5463 15.4068 13.1383 15.431C13.721 15.456 14.1905 14.7236 14.5493 14.0629C14.9027 13.4007 15.2225 12.3212 15.185 11.8017C15.1437 11.2822 14.7529 10.9226 14.0353 11.5458Z" fill="#F9F2E3"/>
<path d="M4.10358 19.2261C4.10358 19.2261 4.45616 21.1246 4.66442 21.6535C4.868 22.1808 4.94132 22.3999 5.21276 22.701C5.38748 22.8913 5.83284 22.9834 6.24624 22.5567C6.66432 22.1316 6.46464 21.2791 6.23844 20.5584C6.01536 19.84 5.46546 18.8619 5.06844 18.5366C4.67298 18.2121 4.15038 18.2628 4.10358 19.2261Z" fill="#F9F2E3"/>
<path d="M10.6696 12.6306C10.6696 12.6306 10.3537 14.5338 10.3678 15.1039C10.3834 15.6733 10.3756 15.9034 10.5284 16.2849C10.6275 16.5251 11.0089 16.7692 11.5464 16.5173C12.0807 16.27 12.1844 15.3988 12.2179 14.6437C12.2476 13.8879 12.0682 12.7756 11.8077 12.3295C11.5464 11.8802 11.0401 11.7414 10.6696 12.6306Z" fill="#F9F2E3"/>
<path d="M19.9025 12.955C19.9025 12.955 20.0491 11.0308 19.9828 10.4637C19.9181 9.89744 19.9087 9.66734 19.7215 9.30152C19.6022 9.06908 19.1974 8.86472 18.6834 9.15878C18.1732 9.45986 18.1475 10.3342 18.1842 11.0916C18.2146 11.8459 18.4962 12.9371 18.7933 13.3599C19.0913 13.7795 19.6084 13.8731 19.9025 12.955Z" fill="#F9F2E3"/>
<path d="M23.1715 9.73661C23.1715 9.73661 24.4873 8.36459 24.7954 7.88957C25.1043 7.41611 25.24 7.23203 25.3266 6.82877C25.3812 6.57449 25.205 6.14705 24.6254 6.03473C24.0482 5.92007 23.4772 6.57293 23.0295 7.17119C22.5779 7.76789 22.106 8.78813 22.0678 9.30761C22.0335 9.82397 22.3696 10.2428 23.1715 9.73661Z" fill="#F9F2E3"/>
<path d="M21.1271 6.4154C21.1271 6.4154 22.989 6.64238 23.5428 6.60026C24.0958 6.55814 24.315 6.55345 24.6823 6.37717C24.9101 6.26407 25.1262 5.85692 24.8555 5.32028C24.5887 4.77818 23.7385 4.71968 23.0046 4.72202C22.2721 4.7267 21.2028 4.97161 20.7816 5.26021C20.3604 5.54881 20.2504 6.08078 21.1271 6.4154Z" fill="#F9F2E3"/>
<path d="M36.3301 5.89723C36.3301 5.89723 37.6459 4.52756 37.9556 4.05098C38.2621 3.57596 38.3939 3.39577 38.4813 2.98783C38.539 2.73277 38.3589 2.30923 37.7832 2.19457C37.2052 2.07913 36.6374 2.73121 36.1873 3.33181C35.7373 3.93085 35.2669 4.94953 35.2295 5.46823C35.1913 5.98537 35.5267 6.40189 36.3301 5.89723Z" fill="#F9F2E3"/>
<path d="M30.6361 5.70449C30.6361 5.70449 32.4129 5.09297 32.8942 4.81373C33.3778 4.53137 33.5759 4.43309 33.8325 4.11095C33.9932 3.90893 34.0213 3.44717 33.554 3.07511C33.0915 2.70539 32.2967 3.02207 31.6345 3.34811C30.9707 3.67493 30.1049 4.36523 29.842 4.81139C29.5823 5.25911 29.6985 5.78561 30.6361 5.70449Z" fill="#F9F2E3"/>
<path d="M42.1138 4.93985C42.1138 4.93985 43.8922 4.32989 44.3781 4.04909C44.8563 3.76673 45.0583 3.66533 45.3141 3.34475C45.4733 3.14507 45.5029 2.68097 45.0372 2.31203C44.5692 1.94231 43.7775 2.25821 43.1145 2.58581C42.4492 2.91185 41.5857 3.59903 41.3244 4.04363C41.0631 4.49369 41.1817 5.02097 42.1138 4.93985Z" fill="#F9F2E3"/>
<path d="M26.7486 5.50774C26.7486 5.50774 28.6237 5.57325 29.1689 5.47965C29.718 5.38995 29.9411 5.36734 30.2882 5.1583C30.5058 5.02804 30.6883 4.6045 30.3756 4.08892C30.0636 3.57568 29.2141 3.58971 28.4817 3.65835C27.7493 3.72387 26.7049 4.06006 26.311 4.38844C25.914 4.7137 25.8508 5.24878 26.7486 5.50774Z" fill="#F9F2E3"/>
<path d="M35.8964 1.51545C35.8964 1.51545 37.5484 2.42493 38.0788 2.59185C38.6085 2.75799 38.8191 2.83833 39.22 2.80947C39.4735 2.79075 39.8182 2.49201 39.7582 1.88985C39.6997 1.28847 38.9267 0.910953 38.2426 0.639513C37.5586 0.367293 36.4759 0.193352 35.9838 0.305672C35.4908 0.420332 35.1983 0.869614 35.8964 1.51545Z" fill="#F9F2E3"/>
<path d="M36.3862 0.957094C36.3862 0.957094 34.3879 0.914975 33.7982 1.02027C33.2093 1.12791 32.9745 1.15677 32.5931 1.38844C32.356 1.53507 32.1407 1.99449 32.4582 2.54985C32.7741 3.10209 33.6828 3.07011 34.4667 2.98743C35.2513 2.90787 36.3824 2.52334 36.8153 2.16766C37.2505 1.80886 37.3433 1.22229 36.3862 0.957094Z" fill="#FCF8F0"/>
<path d="M42.6224 5.86489C42.6224 5.86489 41.3447 4.27993 40.8814 3.89227C40.4181 3.50305 40.2449 3.33535 39.826 3.19261C39.5616 3.10213 39.0827 3.23942 38.8838 3.84392C38.6826 4.45154 39.298 5.14106 39.8721 5.6972C40.4485 6.2549 41.468 6.88669 42.014 6.99199C42.5631 7.09495 43.0521 6.78295 42.6224 5.86489Z" fill="#FCF8F0"/>
<path d="M32.8318 7.25637C32.8318 7.25637 31.5526 5.66984 31.0877 5.28374C30.6283 4.89452 30.4512 4.72761 30.0331 4.58253C29.7703 4.49439 29.2921 4.63011 29.0917 5.23539C28.8897 5.83989 29.5074 6.53409 30.0807 7.08633C30.6579 7.64559 31.6789 8.27817 32.2242 8.38113C32.7733 8.48955 33.2577 8.17521 32.8318 7.25637Z" fill="#FCF8F0"/>
<path d="M25.8523 5.40659C25.8523 5.40659 27.4115 4.11802 27.7961 3.64846C28.1806 3.175 28.3436 2.99717 28.4887 2.56739C28.58 2.29829 28.4567 1.80376 27.8733 1.58848C27.2883 1.3732 26.6043 1.99487 26.0575 2.57909C25.5092 3.16409 24.8773 4.2046 24.7681 4.76386C24.6582 5.32702 24.9546 5.83559 25.8523 5.40659Z" fill="#FCF8F0"/>
<path d="M32.1142 3.17642C32.1142 3.17642 33.9862 3.9065 34.5735 4.00868C35.164 4.11008 35.398 4.16546 35.8301 4.0781C36.1023 4.02116 36.4533 3.6608 36.3363 3.0329C36.2185 2.40344 35.3519 2.11562 34.5844 1.9253C33.8208 1.73498 32.6297 1.70066 32.1032 1.88942C31.5775 2.0774 31.3006 2.5961 32.1142 3.17642Z" fill="#FCF8F0"/>
<path d="M42.0428 3.03655C42.0428 3.03655 43.9125 3.76507 44.5029 3.86725C45.0918 3.97099 45.3243 4.02637 45.7572 3.93823C46.0302 3.88207 46.378 3.52093 46.2642 2.89381C46.1487 2.26201 45.2783 1.97419 44.517 1.78387C43.7463 1.59355 42.5568 1.56313 42.0342 1.75111C41.5054 1.93831 41.2285 2.45701 42.0428 3.03655Z" fill="#FCF8F0"/>
<path d="M52.0252 8.49485C52.0252 8.49485 50.1493 7.77569 49.562 7.67663C48.9707 7.57523 48.7368 7.52219 48.3039 7.61111C48.0332 7.66961 47.6853 8.03309 47.8031 8.65943C47.9232 9.28889 48.7913 9.57515 49.562 9.75923C50.3248 9.94877 51.5151 9.97295 52.0432 9.78185C52.5665 9.59231 52.8435 9.07205 52.0252 8.49485Z" fill="#FCF8F0"/>
<path d="M34.7553 4.80543C34.7553 4.80543 32.9566 5.70789 32.48 6.08073C32.0034 6.45123 31.8037 6.58773 31.5666 6.97227C31.4215 7.21485 31.4387 7.72731 31.9613 8.06973C32.4839 8.41293 33.2811 7.96209 33.9448 7.51905C34.6055 7.07289 35.4432 6.20397 35.6694 5.68137C35.8995 5.15877 35.7232 4.59483 34.7553 4.80543Z" fill="#FCF8F0"/>
<path d="M30.7117 2.28917C30.7117 2.28917 28.9794 1.54817 28.4404 1.43819C27.8936 1.32431 27.6791 1.26581 27.2837 1.33367C27.0317 1.37657 26.7166 1.70729 26.8328 2.30165C26.9467 2.89679 27.7493 3.19163 28.4583 3.39599C29.1658 3.59723 30.2562 3.66119 30.7391 3.50129C31.2219 3.33593 31.4668 2.86013 30.7117 2.28917Z" fill="#F9F2E3"/>
<path d="M40.6372 2.05102C40.6372 2.05102 42.4726 2.43867 43.0287 2.44491C43.5825 2.45037 43.8009 2.46598 44.1785 2.3209C44.4195 2.2234 44.6667 1.84198 44.4421 1.28038C44.2198 0.720337 43.3774 0.586179 42.6442 0.529239C41.9133 0.466059 40.8276 0.617377 40.3845 0.868537C39.9438 1.12126 39.787 1.64152 40.6372 2.05102Z" fill="#F9F2E3"/>
<path d="M46.9568 3.17716C46.9568 3.17716 44.978 3.47434 44.4179 3.68104C43.8501 3.88696 43.6215 3.95248 43.2877 4.24576C43.0724 4.43296 42.939 4.9228 43.3329 5.41264C43.7315 5.90716 44.6262 5.72308 45.3851 5.5078C46.1456 5.29096 47.2009 4.72624 47.5691 4.2988C47.9451 3.8698 47.9451 3.2809 46.9568 3.17716Z" fill="#FCF8F0"/>
<path d="M54.2638 4.53987C54.2638 4.53987 52.8824 6.02499 52.5626 6.54213C52.2374 7.06083 52.0954 7.26206 52.0057 7.70588C51.9511 7.98668 52.1352 8.45702 52.7428 8.59586C53.3457 8.73158 53.9448 8.02334 54.4167 7.3697C54.887 6.71996 55.3823 5.60456 55.4206 5.0336C55.4564 4.4642 55.1047 3.9962 54.2638 4.53987Z" fill="#FCF8F0"/>
<path d="M44.5825 6.22939C44.5825 6.22939 42.7082 6.21379 42.1645 6.32065C41.6193 6.42673 41.4009 6.45793 41.0561 6.67399C40.8416 6.81049 40.67 7.24183 40.9984 7.74883C41.3205 8.25193 42.1723 8.21293 42.9031 8.12557C43.6324 8.03665 44.6683 7.67239 45.0544 7.33699C45.4405 6.99925 45.4928 6.46183 44.5825 6.22939Z" fill="#F9F2E3"/>
<path d="M47.1705 8.36074C47.1705 8.36074 47.7828 6.53476 47.8577 5.97238C47.9357 5.40454 47.9801 5.18146 47.8897 4.7782C47.8304 4.52236 47.4926 4.21738 46.9225 4.37416C46.3546 4.52782 46.1152 5.371 45.9638 6.11278C45.811 6.85066 45.8156 7.9801 46.0005 8.46448C46.1861 8.94886 46.6612 9.17272 47.1705 8.36074Z" fill="#F9F2E3"/>
<path d="M53.2639 10.4741C53.2639 10.4741 53.2678 8.54202 53.1617 7.98276C53.0572 7.42116 53.0252 7.19261 52.813 6.84239C52.6773 6.62321 52.2631 6.44928 51.7717 6.78312C51.285 7.12086 51.3248 7.99758 51.4161 8.74715C51.5019 9.50064 51.8638 10.5646 52.1922 10.9616C52.519 11.3578 53.0431 11.4085 53.2639 10.4741Z" fill="#F9F2E3"/>
<path d="M50.0456 5.78574C50.0456 5.78574 51.9199 5.8497 52.4667 5.75766C53.0143 5.6664 53.2374 5.643 53.5845 5.43708C53.8021 5.3037 53.9838 4.87938 53.6726 4.36614C53.3606 3.85212 52.5065 3.86538 51.7772 3.93324C51.0456 4.00188 50.0004 4.33806 49.6065 4.66332C49.2118 4.98936 49.1424 5.52756 50.0456 5.78574Z" fill="#F9F2E3"/>
<path d="M51.1298 11.6277C51.1298 11.6277 53.001 11.6901 53.5455 11.6004C54.0961 11.5099 54.3145 11.4881 54.6648 11.2798C54.8816 11.1456 55.0641 10.7221 54.7529 10.2081C54.4393 9.69484 53.5907 9.70654 52.8583 9.7783C52.1266 9.84538 51.0799 10.1808 50.6852 10.5068C50.2897 10.8321 50.2265 11.3679 51.1298 11.6277Z" fill="#F9F2E3"/>
<path d="M42.191 8.45395C42.191 8.45395 40.3884 7.55851 39.8128 7.40329C39.2348 7.24807 39.0078 7.17085 38.5687 7.21765C38.291 7.24885 37.915 7.57724 37.9728 8.21294C38.0344 8.85098 38.8744 9.21836 39.6217 9.47888C40.3689 9.73628 41.5506 9.87668 42.0904 9.73862C42.6325 9.60056 42.9507 9.10837 42.191 8.45395Z" fill="#FCF8F0"/>
<path d="M44.2057 8.57966C44.2057 8.57966 42.3712 9.40333 41.8798 9.75667C41.393 10.1061 41.1887 10.2325 40.9383 10.6084C40.7815 10.8448 40.7737 11.3557 41.2854 11.7207C41.7979 12.0858 42.613 11.6685 43.29 11.2551C43.9678 10.8393 44.8383 10.0032 45.0848 9.49226C45.3359 8.9798 45.1776 8.40806 44.2057 8.57966Z" fill="#FCF8F0"/>
<path d="M33.9644 7.9657C33.9644 7.9657 32.0635 8.59906 31.5424 8.89936C31.0214 9.19732 30.8038 9.30496 30.5167 9.65284C30.3389 9.87124 30.2882 10.3798 30.757 10.794C31.2312 11.2121 32.0814 10.8767 32.7967 10.5303C33.5104 10.1879 34.4604 9.44614 34.756 8.95864C35.0532 8.47348 34.9534 7.89316 33.9644 7.9657Z" fill="#FCF8F0"/>
<path d="M36.4907 12.1447C36.4907 12.1447 38.1069 11.1704 38.525 10.7921C38.9399 10.4162 39.1139 10.2758 39.298 9.90839C39.4173 9.67595 39.3518 9.21653 38.8237 8.95289C38.2941 8.68769 37.5812 9.16817 36.9978 9.62837C36.4135 10.0855 35.7037 10.9458 35.5353 11.4356C35.3722 11.9302 35.5891 12.42 36.4907 12.1447Z" fill="#F9F2E3"/>
<path d="M55.153 17.5387C55.153 17.5387 53.3512 16.6448 52.7748 16.4865C52.1992 16.3328 51.9706 16.2541 51.5299 16.3016C51.253 16.3344 50.8771 16.6644 50.9395 17.3008C51.0003 17.935 51.8388 18.3008 52.586 18.5621C53.3333 18.8226 54.515 18.9638 55.054 18.8242C55.5945 18.6838 55.9135 18.1916 55.153 17.5387Z" fill="#FCF8F0"/>
<path d="M63.0848 18.8037C63.0848 18.8037 61.9882 20.5236 61.7627 21.0923C61.5342 21.6624 61.4328 21.8871 61.4211 22.3395C61.4141 22.6273 61.6824 23.0555 62.3048 23.0774C62.9218 23.0984 63.3859 22.288 63.7346 21.5579C64.0801 20.8302 64.3695 19.643 64.3094 19.0721C64.2424 18.5027 63.811 18.1111 63.0848 18.8037Z" fill="#FCF8F0"/>
<path d="M55.7061 22.292C55.7061 22.292 56.4533 20.5199 56.5695 19.963C56.6857 19.4029 56.7466 19.1845 56.6858 18.7758C56.646 18.5161 56.3332 18.1877 55.7513 18.2992C55.1749 18.4053 54.8746 19.2266 54.6702 19.9552C54.4612 20.6813 54.3824 21.8069 54.533 22.3045C54.6851 22.8029 55.1437 23.0642 55.7061 22.292Z" fill="#F9F2E3"/>
<path d="M61.8875 21.7714C61.8875 21.7714 61.9461 19.8394 61.8587 19.2762C61.769 18.7138 61.7472 18.4869 61.5436 18.1273C61.4141 17.9026 61.0023 17.7178 60.5038 18.0384C60.007 18.3582 60.0202 19.2349 60.0865 19.9891C60.1559 20.7434 60.4797 21.819 60.7971 22.2254C61.1154 22.6326 61.6372 22.7004 61.8875 21.7714Z" fill="#F9F2E3"/>
<path d="M59.6622 17.9962C59.6622 17.9962 61.4289 18.6421 61.978 18.724C62.5256 18.8121 62.7432 18.8589 63.1356 18.7684C63.382 18.7107 63.6816 18.3636 63.5357 17.7778C63.3922 17.1921 62.5755 16.9386 61.8587 16.7716C61.138 16.6078 60.0468 16.6016 59.5741 16.7872C59.1006 16.9729 58.8799 17.4658 59.6622 17.9962Z" fill="#F9F2E3"/>
<path d="M67.6775 20.0095C67.6775 20.0095 68.6993 18.3902 68.9107 17.8645C69.1189 17.3333 69.2133 17.1282 69.2203 16.714C69.2227 16.4519 68.9676 16.0713 68.3787 16.0799C67.7922 16.0877 67.3585 16.8443 67.0371 17.5237C66.7134 18.2038 66.4529 19.2989 66.5176 19.8145C66.5824 20.3309 66.9919 20.6686 67.6775 20.0095Z" fill="#F9F2E3"/>
<path d="M71.1579 24.1017C71.1579 24.1017 72.1797 22.4824 72.3871 21.9535C72.5985 21.4247 72.6929 21.2188 72.7007 20.8054C72.7046 20.5425 72.4456 20.1642 71.8614 20.172C71.2694 20.1783 70.8388 20.9372 70.5159 21.6158C70.193 22.2936 69.934 23.3903 69.9964 23.9059C70.0619 24.4246 70.473 24.7592 71.1579 24.1017Z" fill="#F9F2E3"/>
<path d="M49.0028 10.2377C49.0028 10.2377 47.4584 8.93115 46.9326 8.63787C46.4061 8.34693 46.2041 8.21901 45.7681 8.15739C45.4889 8.11995 45.0458 8.34927 44.9616 8.98185C44.8758 9.61677 45.6105 10.1768 46.2767 10.6082C46.9404 11.045 48.0566 11.4677 48.6128 11.4599C49.172 11.4568 49.5924 11.0559 49.0028 10.2377Z" fill="#FCF8F0"/>
<path d="M51.8474 12.9759C51.8474 12.9759 50.1806 14.1201 49.7594 14.5538C49.3366 14.9875 49.1556 15.1505 48.9739 15.5655C48.8577 15.8236 48.9403 16.3283 49.5035 16.5958C50.0674 16.8649 50.8007 16.3049 51.3974 15.7761C51.9948 15.2464 52.7101 14.2675 52.8676 13.7169C53.0252 13.167 52.778 12.6342 51.8474 12.9759Z" fill="#FCF8F0"/>
<path d="M49.1018 9.53875C49.1018 9.53875 47.3741 10.5762 46.9248 10.9833C46.4763 11.3881 46.2891 11.541 46.0816 11.9404C45.9529 12.1923 46.0068 12.7032 46.5528 13.0051C47.1003 13.3085 47.8632 12.7976 48.4903 12.3038C49.1197 11.8124 49.8912 10.8796 50.0807 10.3414C50.2687 9.80317 50.0565 9.25405 49.1018 9.53875Z" fill="#FCF8F0"/>
<path d="M47.9731 13.5001C47.9731 13.5001 46.2634 12.7138 45.7205 12.5867C45.1815 12.458 44.9686 12.3909 44.5684 12.4494C44.3196 12.4868 43.9951 12.8098 44.0926 13.408C44.1948 14.0032 44.9888 14.3214 45.6916 14.5414C46.3921 14.7668 47.4848 14.8596 47.97 14.7122C48.4544 14.5632 48.7133 14.0929 47.9731 13.5001Z" fill="#F9F2E3"/>
<path d="M50.9816 13.7203C50.9816 13.7203 51.1938 11.8046 51.1516 11.236C51.1072 10.6674 51.1025 10.4381 50.9286 10.0629C50.8178 9.82968 50.4223 9.60894 49.9005 9.8874C49.3787 10.1651 49.3241 11.0434 49.3288 11.7961C49.3381 12.5527 49.5784 13.6525 49.8607 14.0846C50.1447 14.5175 50.6587 14.6267 50.9816 13.7203Z" fill="#F9F2E3"/>
<path d="M54.327 12.1738C54.327 12.1738 55.9502 11.212 56.3675 10.8392C56.7848 10.4632 56.9642 10.3228 57.1537 9.95857C57.2691 9.72769 57.2067 9.26905 56.6795 9.00073C56.1545 8.73163 55.433 9.20665 54.848 9.65983C54.263 10.1161 53.5454 10.971 53.3777 11.4601C53.2061 11.9515 53.4245 12.4444 54.327 12.1738Z" fill="#F9F2E3"/>
<path d="M60.8704 12.0067C60.8704 12.0067 59.071 11.1104 58.4906 10.9568C57.9142 10.8008 57.6896 10.722 57.2489 10.7719C56.9735 10.8008 56.5937 11.1323 56.6561 11.768C56.7138 12.4029 57.5531 12.7679 58.3034 13.0292C59.0499 13.2905 60.23 13.4325 60.7721 13.2905C61.3096 13.154 61.6301 12.6595 60.8704 12.0067Z" fill="#FCF8F0"/>
<path d="M67.5933 16.5683C67.5933 16.5683 65.6277 16.9279 65.0676 17.1525C64.5099 17.3709 64.2829 17.4482 63.9538 17.7492C63.7479 17.9411 63.6285 18.4356 64.0372 18.9146C64.4499 19.3943 65.3398 19.1868 66.091 18.9465C66.8476 18.7063 67.8842 18.1088 68.2446 17.672C68.6034 17.2337 68.5839 16.6424 67.5933 16.5683Z" fill="#FCF8F0"/>
<path d="M59.9454 15.2038C59.9454 15.2038 58.2356 14.4152 57.695 14.2896C57.1568 14.1609 56.9408 14.0938 56.5422 14.1515C56.295 14.1882 55.9674 14.5127 56.0688 15.1094C56.1663 15.7037 56.9603 16.0243 57.6662 16.2451C58.3666 16.4666 59.4586 16.5617 59.9438 16.4167C60.4282 16.2669 60.6871 15.7981 59.9454 15.2038Z" fill="#F9F2E3"/>
<path d="M65.4919 13.3276C65.4919 13.3276 63.7837 12.5382 63.2455 12.4119C62.7011 12.2832 62.4897 12.2169 62.0935 12.2754C61.84 12.3136 61.5202 12.6342 61.6161 13.2309C61.716 13.8276 62.5123 14.1466 63.212 14.3681C63.9148 14.5889 65.0076 14.6848 65.4912 14.5374C65.9763 14.39 66.2329 13.9189 65.4919 13.3276Z" fill="#F9F2E3"/>
<path d="M61.2183 16.0817C61.2183 16.0817 62.5389 14.7112 62.8462 14.2354C63.1551 13.7627 63.2892 13.5794 63.3758 13.1769C63.4304 12.9211 63.2518 12.4929 62.6738 12.3782C62.0989 12.2636 61.528 12.9164 61.0779 13.5162C60.6302 14.1129 60.1575 15.1324 60.1232 15.6519C60.0834 16.1714 60.4204 16.5855 61.2183 16.0817Z" fill="#F9F2E3"/>
<path d="M57.8128 10.8951C57.8128 10.8951 59.3276 9.75788 59.7012 9.33824C60.0811 8.92094 60.241 8.7626 60.39 8.37806C60.4812 8.13392 60.3751 7.68698 59.8221 7.48028C59.2707 7.27046 58.6053 7.82115 58.0702 8.33985C57.5344 8.85699 56.9119 9.78363 56.7957 10.2906C56.6795 10.7953 56.947 11.2641 57.8128 10.8951Z" fill="#F9F2E3"/>
<path d="M45.8024 17.9762C45.8024 17.9762 44.6207 16.314 44.1807 15.8943C43.7447 15.4802 43.5778 15.3023 43.1683 15.1323C42.9101 15.0246 42.425 15.1323 42.191 15.7212C41.9531 16.314 42.5272 17.0425 43.0685 17.6353C43.6075 18.2281 44.5879 18.9239 45.1261 19.0619C45.6682 19.2008 46.1721 18.9239 45.8024 17.9762Z" fill="white"/>
<path d="M37.3628 21.7073C37.3628 21.7073 38.6849 20.1644 38.986 19.6325C39.287 19.1005 39.4212 18.8946 39.4937 18.4476C39.5413 18.1645 39.3354 17.7027 38.7239 17.592C38.1147 17.4804 37.5422 18.2136 37.1007 18.886C36.653 19.5576 36.2037 20.6894 36.1897 21.2634C36.1733 21.8375 36.5469 22.2876 37.3628 21.7073Z" fill="white"/>
<path d="M52.7889 19.2703C52.7889 19.2703 50.9832 20.1572 50.505 20.5238C50.0238 20.8911 49.8248 21.0269 49.5862 21.4067C49.4325 21.6493 49.4489 22.1587 49.9691 22.5073C50.4878 22.8568 51.292 22.4122 51.9566 21.9722C52.6196 21.5378 53.4643 20.6759 53.6975 20.154C53.9315 19.633 53.7576 19.0706 52.7889 19.2703Z" fill="white"/>
<path d="M41.6154 21.4864C41.6154 21.4864 43.5966 21.1986 44.1613 20.9973C44.7237 20.7945 44.9553 20.729 45.2946 20.4388C45.5099 20.254 45.6448 19.761 45.2502 19.2696C44.8531 18.7767 43.9593 18.953 43.1956 19.1643C42.4367 19.3757 41.3821 19.9373 41.007 20.3616C40.6333 20.7875 40.6318 21.3795 41.6154 21.4864Z" fill="white"/>
<path d="M48.4466 23.7989C48.4466 23.7989 47.2649 22.1367 46.8281 21.7217C46.3889 21.3021 46.2236 21.1258 45.8156 20.9573C45.5567 20.8466 45.0723 20.9573 44.8344 21.547C44.5988 22.1367 45.1721 22.8668 45.7111 23.4596C46.2532 24.0492 47.2337 24.7458 47.775 24.8854C48.3124 25.0235 48.8202 24.7458 48.4466 23.7989Z" fill="white"/>
<path d="M49.1954 28.6001C49.1954 28.6001 51.1774 28.3107 51.7421 28.1095C52.3068 27.9075 52.5385 27.8427 52.877 27.5502C53.0891 27.3677 53.2233 26.8771 52.831 26.3849C52.4363 25.888 51.5385 26.0674 50.7796 26.2773C50.0191 26.4902 48.9598 27.0502 48.5839 27.4753C48.2126 27.8973 48.2126 28.494 49.1954 28.6001Z" fill="white"/>
<path d="M62.411 23.8471C62.411 23.8471 60.8307 22.5827 60.2971 22.305C59.7636 22.0297 59.5593 21.9049 59.1225 21.8542C58.8448 21.8269 58.4049 22.0648 58.3355 22.7005C58.2684 23.337 59.0133 23.8744 59.6895 24.2932C60.3689 24.709 61.4937 25.1013 62.0537 25.0826C62.6067 25.0631 63.0194 24.6528 62.411 23.8471Z" fill="white"/>
<path d="M38.4899 25.02C38.4899 25.02 37.3066 23.3562 36.8691 22.9397C36.4299 22.5185 36.2607 22.3415 35.8574 22.1714C35.6 22.0638 35.1117 22.1714 34.8762 22.7619C34.6414 23.3562 35.2155 24.0855 35.756 24.6768C36.2965 25.2704 37.2755 25.9646 37.8144 26.1011C38.3542 26.2438 38.8612 25.9646 38.4899 25.02Z" fill="white"/>
<path d="M38.7746 28.5884C38.7746 28.5884 40.5998 27.7483 41.0858 27.3973C41.5764 27.0409 41.7784 26.913 42.0264 26.537C42.1832 26.2991 42.1832 25.789 41.6723 25.4255C41.1599 25.0636 40.3455 25.4871 39.6701 25.9075C38.9954 26.3272 38.1288 27.168 37.8839 27.6828C37.6389 28.1937 37.7957 28.7662 38.7746 28.5884Z" fill="white"/>
<path d="M22.0966 25.8761C22.0966 25.8761 20.4836 24.6546 19.9454 24.3941C19.4025 24.1305 19.1919 24.015 18.7551 23.9792C18.4759 23.9573 18.0461 24.2093 17.993 24.8465C17.9392 25.483 18.7052 26.0017 19.3892 26.3972C20.0764 26.7942 21.2152 27.1538 21.7721 27.1187C22.3283 27.0828 22.7269 26.6608 22.0966 25.8761Z" fill="white"/>
<path d="M11.2024 22.0055C11.2024 22.0055 10.92 19.9666 10.7219 19.3847C10.5284 18.8044 10.459 18.5672 10.1782 18.2186C9.99961 17.9986 9.52537 17.8582 9.04489 18.2654C8.56519 18.6725 8.73679 19.5945 8.94739 20.3768C9.15409 21.1631 9.6993 22.2496 10.1127 22.6357C10.5245 23.0203 11.1033 23.0203 11.2024 22.0055Z" fill="white"/>
<path d="M14.1297 25.5494C14.1297 25.5494 16.1117 25.2655 16.6741 25.0619C17.2365 24.8591 17.4689 24.7928 17.8082 24.5019C18.0211 24.3186 18.1576 23.8264 17.7637 23.3342C17.3683 22.8405 16.4697 23.0168 15.71 23.2305C14.9526 23.4388 13.8934 24.0011 13.5182 24.4262C13.1461 24.8529 13.1438 25.4426 14.1297 25.5494Z" fill="white"/>
<path d="M29.5355 20.0541C29.5355 20.0541 28.3554 18.3888 27.9162 17.9739C27.4771 17.5535 27.3109 17.3772 26.9038 17.2071C26.6425 17.0979 26.1604 17.2071 25.9233 17.8015C25.6862 18.3888 26.2618 19.1205 26.8032 19.7109C27.3406 20.303 28.3203 20.9979 28.8608 21.136C29.3998 21.2772 29.9107 20.9979 29.5355 20.0541Z" fill="white"/>
<path d="M27.9326 24.0108C27.9326 24.0108 29.5885 22.8548 30.009 22.4173C30.4309 21.9805 30.6096 21.8174 30.7874 21.4001C30.9028 21.1412 30.8147 20.6365 30.2484 20.3737C29.6845 20.1092 28.9559 20.6763 28.3608 21.2083C27.7703 21.7426 27.0567 22.7269 26.9046 23.2776C26.7486 23.8306 27.0044 24.3602 27.9326 24.0108Z" fill="white"/>
<path d="M19.6084 13.8421C19.6084 13.8421 18.4314 12.1807 17.9923 11.7626C17.5508 11.3445 17.3854 11.1667 16.9775 10.9951C16.7193 10.889 16.2365 10.9951 16.0009 11.5863C15.7654 12.1807 16.3387 12.9092 16.8753 13.5004C17.4182 14.0932 18.3979 14.7882 18.9384 14.9255C19.479 15.0667 19.9844 14.7882 19.6084 13.8421Z" fill="white"/>
<path d="M18.8589 18.5162C18.8589 18.5162 20.3128 17.1028 20.6583 16.602C21.0101 16.1021 21.1591 15.9102 21.273 15.4695C21.3424 15.1941 21.1786 14.7121 20.5803 14.5436C19.9828 14.3751 19.3503 15.0561 18.8456 15.6793C18.3441 16.3049 17.7965 17.3922 17.7302 17.9624C17.6639 18.5325 17.9931 19.0154 18.8589 18.5162Z" fill="white"/>
<path d="M31.8537 12.2166C31.8537 12.2166 30.6743 10.5529 30.2367 10.1387C29.7984 9.71827 29.6315 9.54199 29.2227 9.37351C28.9677 9.26275 28.4809 9.37351 28.2438 9.96163C28.0083 10.5529 28.58 11.2845 29.1221 11.875C29.6619 12.4654 30.6416 13.1635 31.1837 13.3016C31.7203 13.4404 32.2296 13.1635 31.8537 12.2166Z" fill="white"/>
<path d="M36.8308 14.7637C36.8308 14.7637 36.3129 12.7708 36.0493 12.2193C35.7849 11.6686 35.6913 11.4401 35.3722 11.1336C35.1679 10.9347 34.6788 10.8559 34.2498 11.32C33.8232 11.7825 34.1047 12.6772 34.3996 13.4275C34.696 14.181 35.366 15.1919 35.8231 15.5242C36.2802 15.8541 36.8488 15.7839 36.8308 14.7637Z" fill="white"/>
<path d="M30.374 18.3963C30.374 18.3963 31.7803 16.933 32.1103 16.419C32.4379 15.905 32.5837 15.71 32.6812 15.2693C32.7444 14.9877 32.5634 14.5111 31.9589 14.366C31.3552 14.2194 30.7453 14.919 30.2648 15.5657C29.7828 16.206 29.2742 17.3144 29.2266 17.8823C29.1783 18.4548 29.5277 18.9259 30.374 18.3963Z" fill="white"/>
<path d="M24.5653 16.779C24.5653 16.779 26.5192 16.3414 27.0691 16.0973C27.6159 15.8524 27.8382 15.7681 28.158 15.453C28.3577 15.2533 28.4599 14.7533 28.0301 14.2908C27.6011 13.8306 26.7189 14.074 25.974 14.3431C25.2322 14.6129 24.2175 15.2533 23.875 15.7034C23.5334 16.1573 23.5771 16.7462 24.5653 16.779Z" fill="white"/>
<path d="M25.6535 5.16163C25.6535 5.16163 24.4718 3.50022 24.0326 3.08526C23.5958 2.66562 23.4304 2.48623 23.0225 2.31697C22.7643 2.21011 22.2815 2.31697 22.0413 2.90821C21.8065 3.50023 22.3798 4.22953 22.9196 4.82077C23.4609 5.41201 24.4413 6.10855 24.9819 6.24739C25.5208 6.38623 26.0286 6.10855 25.6535 5.16163Z" fill="white"/>
<path d="M16.8394 11.0724C16.8394 11.0724 18.7949 10.6496 19.3479 10.4102C19.8963 10.1684 20.1217 10.0849 20.4407 9.77291C20.6443 9.57557 20.7465 9.0748 20.3182 8.60992C19.8931 8.14582 19.0141 8.38295 18.2661 8.64737C17.5196 8.91257 16.5025 9.54436 16.1554 9.99598C15.8098 10.4453 15.8488 11.0342 16.8394 11.0724Z" fill="white"/>
<path d="M24.0755 9.97235C24.0755 9.97235 26.0559 9.68297 26.6191 9.48407C27.1869 9.28049 27.4147 9.21419 27.7516 8.92403C27.97 8.74073 28.1057 8.24933 27.7087 7.75559C27.314 7.26185 26.4186 7.44047 25.6566 7.64951C24.8968 7.86167 23.8399 8.42405 23.4671 8.84837C23.0911 9.27347 23.0896 9.86471 24.0755 9.97235Z" fill="white"/>
<path d="M18.4424 6.50373C18.4424 6.50373 20.3986 6.91167 21.0008 6.91557C21.5943 6.91947 21.8361 6.93585 22.2472 6.77751C22.5069 6.67845 22.7971 6.26037 22.5802 5.65977C22.372 5.05917 21.4687 4.91721 20.6833 4.85715C19.8963 4.79631 18.7208 4.96246 18.2263 5.23312C17.7388 5.50846 17.5422 6.06537 18.4424 6.50373Z" fill="white"/>
<path d="M41.0304 0.740771C41.0304 0.740771 39.1506 1.43887 38.6381 1.75633C38.1241 2.07067 37.915 2.18377 37.6428 2.54101C37.4689 2.76565 37.4314 3.27577 37.9174 3.67591C38.3994 4.07527 39.2449 3.71413 39.9446 3.34441C40.6458 2.97625 41.5701 2.20639 41.8532 1.71109C42.134 1.21579 42.0186 0.636251 41.0304 0.740771Z" fill="white"/>
<path d="M37.6116 8.29442C37.6116 8.29442 39.1584 6.99338 39.5413 6.5168C39.9235 6.04334 40.0873 5.86394 40.2277 5.43494C40.3213 5.16272 40.1895 4.67132 39.6037 4.45994C39.0156 4.24778 38.3401 4.8788 37.7957 5.46458C37.2497 6.0527 36.6288 7.0979 36.5251 7.66028C36.4182 8.22422 36.7146 8.72654 37.6116 8.29442Z" fill="white"/>
<path d="M31.466 6.27894C31.466 6.27894 33.0135 4.97556 33.3934 4.50288C33.7756 4.02708 33.9394 3.84612 34.0821 3.41946C34.1742 3.14724 34.0431 2.65506 33.4581 2.44212C32.8731 2.22918 32.1945 2.85864 31.6501 3.44754C31.1064 4.03488 30.4855 5.08086 30.3763 5.64324C30.2703 6.20562 30.5674 6.71418 31.466 6.27894Z" fill="white"/>
<path d="M28.4224 3.00207C28.4224 3.00207 30.3295 2.38275 30.8521 2.08635C31.3778 1.79307 31.5947 1.68543 31.8802 1.34145C32.0635 1.12461 32.1181 0.61761 31.6501 0.197189C31.1836 -0.220111 30.3272 0.102811 29.6104 0.44445C28.8936 0.78141 27.9435 1.51539 27.6393 1.99509C27.3367 2.47791 27.4342 3.06213 28.4224 3.00207Z" fill="white"/>
<path d="M45.6706 15.191C45.6706 15.191 47.268 16.4319 47.8046 16.6995C48.3452 16.9701 48.5519 17.0871 48.9918 17.1308C49.2672 17.1566 49.7008 16.9101 49.7617 16.272C49.8225 15.6363 49.0683 15.1083 48.3834 14.7035C47.6986 14.3002 46.5668 13.925 46.0146 13.9515C45.4569 13.9827 45.0505 14.3954 45.6706 15.191Z" fill="white"/>
<path d="M43.2424 9.14234C43.2424 9.14234 43.6714 11.1508 43.9078 11.7195C44.1488 12.2834 44.2307 12.5127 44.5364 12.8388C44.7314 13.0431 45.2174 13.1461 45.6636 12.7038C46.1121 12.2592 45.8718 11.3521 45.6113 10.5861C45.3453 9.8225 44.7237 8.77964 44.2822 8.42786C43.843 8.07452 43.2721 8.11976 43.2424 9.14234Z" fill="white"/>
<path d="M50.5331 3.74272C50.5331 3.74272 48.9481 2.48926 48.4107 2.21626C47.8795 1.9417 47.6705 1.81768 47.2337 1.774C46.9568 1.74514 46.5208 1.98694 46.4545 2.6242C46.3882 3.25756 47.1369 3.79342 47.814 4.20526C48.4965 4.61944 49.6267 5.00398 50.1805 4.98214C50.7382 4.95796 51.1516 4.54456 50.5331 3.74272Z" fill="white"/>
<path d="M48.1112 8.20058C48.1112 8.20058 50.0004 7.52042 50.5167 7.20686C51.03 6.89408 51.2413 6.78176 51.5175 6.43154C51.6937 6.20534 51.7351 5.69756 51.2523 5.29664C50.7695 4.88714 49.9255 5.2436 49.2219 5.60474C48.5145 5.9651 47.5839 6.73183 47.2977 7.22401C47.0122 7.71541 47.1261 8.29808 48.1112 8.20058Z" fill="white"/>
<path d="M36.7762 9.56715C36.7762 9.56715 35.4643 8.01261 34.9916 7.63587C34.5189 7.26147 34.338 7.09533 33.9207 6.96117C33.6531 6.87927 33.1804 7.02825 32.9909 7.63665C32.8068 8.24817 33.4378 8.92599 34.0252 9.46653C34.611 10.0086 35.646 10.6131 36.1967 10.706C36.7443 10.7957 37.2263 10.4759 36.7762 9.56715Z" fill="white"/>
<path d="M38.291 12.2588C38.291 12.2588 40.0351 13.2673 40.6045 13.4607C41.1692 13.6526 41.3931 13.74 41.8306 13.7205C42.1083 13.7088 42.5092 13.4046 42.4843 12.765C42.4585 12.1277 41.6434 11.7073 40.9149 11.4008C40.1856 11.0942 39.0117 10.8797 38.4665 10.985C37.9182 11.0903 37.5695 11.5599 38.291 12.2588Z" fill="white"/>
<path d="M58.6506 18.3935C58.6506 18.3935 57.4697 16.7313 57.0313 16.3101C56.5937 15.8944 56.426 15.7173 56.0212 15.5489C55.7622 15.4397 55.2779 15.5489 55.0431 16.1409C54.8028 16.7313 55.3769 17.4591 55.9167 18.0511C56.4603 18.6431 57.4369 19.3381 57.9798 19.4785C58.5164 19.6173 59.0265 19.3381 58.6506 18.3935Z" fill="white"/>
<path d="M67.3374 19.7398C67.3374 19.7398 67.8647 17.7539 67.9053 17.1393C67.9497 16.5262 67.9833 16.2821 67.8546 15.8476C67.7735 15.5707 67.392 15.2501 66.7969 15.428C66.201 15.6066 66.0052 16.5262 65.8913 17.3273C65.7813 18.133 65.8625 19.3537 66.0965 19.8763C66.3281 20.3958 66.8562 20.6313 67.3374 19.7398Z" fill="white"/>
<path d="M56.4814 22.4796C56.4814 22.4796 58.3713 21.8112 58.8869 21.5015C59.4064 21.1926 59.6209 21.0842 59.8962 20.7309C60.074 20.5101 60.1169 20.0008 59.6372 19.5944C59.1575 19.1849 58.3105 19.5351 57.6038 19.8908C56.8963 20.2488 55.9619 21.0085 55.6733 21.5007C55.3831 21.989 55.4947 22.5701 56.4814 22.4796Z" fill="white"/>
<path d="M54.1437 7.99643C54.1437 7.99643 56.0875 8.49484 56.6818 8.5237C57.2785 8.55568 57.5156 8.58298 57.9368 8.44414C58.202 8.35366 58.5078 7.95353 58.3222 7.34357C58.1342 6.73361 57.238 6.5503 56.4564 6.45358C55.6725 6.3592 54.49 6.46997 53.9893 6.71957C53.4854 6.97073 53.2709 7.51907 54.1437 7.99643Z" fill="white"/>
<path d="M52.8723 13.4259C52.8723 13.4259 54.8177 13.9009 55.4151 13.9251C56.0134 13.9461 56.2505 13.9726 56.667 13.8276C56.9307 13.7371 57.2302 13.3315 57.0375 12.7215C56.8449 12.1162 55.9479 11.9431 55.164 11.8565C54.3793 11.7684 53.1984 11.8932 52.6976 12.1498C52.2015 12.4056 51.9925 12.9555 52.8723 13.4259Z" fill="white"/>
<path d="M64.2151 10.5718C64.2151 10.5718 62.262 10.1397 61.6692 10.128C61.067 10.1202 60.8299 10.0991 60.4173 10.252C60.1552 10.3479 59.8619 10.7613 60.0663 11.3651C60.2706 11.968 61.1731 12.1209 61.9578 12.1919C62.7432 12.2636 63.9234 12.1107 64.4155 11.844C64.9077 11.5764 65.1058 11.0226 64.2151 10.5718Z" fill="white"/>
<path d="M62.3439 16.0942C62.3439 16.0942 64.329 16.3415 64.9272 16.2939C65.5231 16.2494 65.7611 16.2463 66.1604 16.0576C66.4131 15.9374 66.6666 15.4952 66.4092 14.9164C66.1503 14.333 65.2431 14.2675 64.4545 14.2698C63.6644 14.2714 62.5038 14.5342 62.0358 14.8462C61.5662 15.1574 61.4165 15.7253 62.3439 16.0942Z" fill="white"/>
<path d="M14.4456 19.1709C14.4456 19.1709 16.2778 18.3418 16.7638 17.9931C17.256 17.639 17.4595 17.5118 17.7099 17.1359C17.8651 16.9003 17.869 16.3894 17.3589 16.0236C16.8496 15.6586 16.0337 16.0798 15.3559 16.4978C14.6781 16.9112 13.8099 17.749 13.5619 18.2622C13.313 18.7762 13.4675 19.3472 14.4456 19.1709Z" fill="white"/>
<path d="M8.09797 18.3381C8.09797 18.3381 9.92787 17.5082 10.4169 17.1564C10.9068 16.8039 11.1119 16.6767 11.3607 16.3016C11.5191 16.0644 11.5199 15.5551 11.009 15.1901C10.4996 14.8266 9.68529 15.247 9.00825 15.6588C8.33121 16.08 7.46149 16.9131 7.21345 17.4263C6.96619 17.9411 7.12219 18.5082 8.09797 18.3381Z" fill="white"/>
<path d="M23.7409 25.6936C23.7409 25.6936 21.9508 24.7778 21.3743 24.6179C20.7932 24.4557 20.5686 24.3761 20.1303 24.4198C19.8549 24.4479 19.4711 24.7724 19.5289 25.4096C19.5811 26.0453 20.4204 26.4197 21.1622 26.6904C21.9094 26.9572 23.088 27.1061 23.6317 26.9735C24.1707 26.8433 24.4959 26.3534 23.7409 25.6936Z" fill="#FCF8F0"/>
<path d="M29.7383 25.9339C29.7383 25.9339 27.7399 26.0041 27.1596 26.143C26.5793 26.2826 26.3421 26.3231 25.974 26.5766C25.7447 26.7342 25.5582 27.2069 25.8975 27.7412C26.2423 28.2755 27.1479 28.1983 27.9271 28.0703C28.7079 27.9432 29.8139 27.4986 30.2343 27.1187C30.647 26.735 30.7094 26.1461 29.7383 25.9339Z" fill="#FCF8F0"/>
<path d="M19.8658 26.2088C19.8658 26.2088 17.869 26.3141 17.2856 26.4638C16.7068 26.612 16.472 26.6573 16.1109 26.9155C15.8824 27.08 15.7022 27.5582 16.0555 28.0847C16.4042 28.612 17.3129 28.5176 18.0874 28.3795C18.8627 28.2376 19.9664 27.775 20.3767 27.3866C20.7854 26.9966 20.8354 26.4077 19.8658 26.2088Z" fill="#FCF8F0"/>
<path d="M24.2884 27.0912C24.2884 27.0912 22.2908 27.1575 21.7113 27.2963C21.1279 27.4359 20.89 27.4773 20.5241 27.7308C20.294 27.893 20.1061 28.3626 20.4485 28.8976C20.7917 29.428 21.6988 29.3532 22.4765 29.2276C23.2549 29.0989 24.3657 28.6582 24.7822 28.2752C25.1956 27.8938 25.258 27.3057 24.2884 27.0912Z" fill="#FCF8F0"/>
<path d="M26.6971 30.3327C26.6971 30.3327 24.9881 29.5433 24.4499 29.4162C23.9063 29.2875 23.6933 29.222 23.2955 29.2789C23.0443 29.3148 22.7199 29.6401 22.8181 30.2336C22.918 30.8335 23.7136 31.1501 24.4164 31.3709C25.1184 31.5955 26.2073 31.6891 26.6955 31.5386C27.1807 31.3958 27.4389 30.9216 26.6971 30.3327Z" fill="#F9F2E3"/>
<path d="M27.4092 30.9312C27.4092 30.9312 28.7282 29.5599 29.0339 29.0833C29.3428 28.6114 29.4754 28.4297 29.5659 28.0249C29.6221 27.769 29.4411 27.3455 28.8639 27.2285C28.2867 27.1154 27.7189 27.7667 27.2696 28.3642C26.8195 28.9648 26.3476 29.9796 26.3094 30.5006C26.2743 31.0201 26.612 31.4374 27.4092 30.9312Z" fill="#F9F2E3"/>
<path d="M30.5659 26.6856C30.5659 26.6856 31.2803 28.4718 31.5853 28.9468C31.8911 29.4226 32.005 29.62 32.331 29.8602C32.5393 30.0131 32.9878 30.0092 33.3161 29.5045C33.643 29.0014 33.2795 28.205 32.9152 27.5483C32.5572 26.8892 31.8263 26.0468 31.3755 25.8104C30.9262 25.5741 30.4239 25.7324 30.5659 26.6856Z" fill="#F9F2E3"/>
<path d="M18.7044 25.3437C18.7044 25.3437 19.0577 27.2414 19.266 27.771C19.4696 28.2991 19.5429 28.5167 19.8143 28.8186C19.989 29.0089 20.4344 29.1002 20.8471 28.6751C21.2651 28.2492 21.0655 27.3959 20.8408 26.6759C20.6162 25.9568 20.0671 24.9794 19.6685 24.6534C19.2738 24.3297 18.752 24.3812 18.7044 25.3437Z" fill="#F9F2E3"/>
<path d="M25.804 28.1228C25.804 28.1228 25.5216 26.0831 25.3227 25.502C25.13 24.9209 25.0606 24.6846 24.779 24.3359C24.6012 24.116 24.1262 23.9756 23.6465 24.3827C23.1668 24.7899 23.3384 25.7111 23.549 26.4942C23.7565 27.2804 24.3009 28.367 24.7127 28.7531C25.1261 29.1376 25.7049 29.1376 25.804 28.1228Z" fill="white"/>
<path d="M28.7313 31.6668C28.7313 31.6668 30.7133 31.3821 31.2757 31.1801C31.838 30.9765 32.0705 30.9094 32.409 30.6193C32.6227 30.4352 32.7584 29.9438 32.3653 29.4516C31.9691 28.9579 31.0713 29.1334 30.3108 29.3479C29.5534 29.5569 28.4942 30.1185 28.1198 30.5436C27.7477 30.9703 27.7438 31.5599 28.7313 31.6668Z" fill="white"/>
<path d="M13.0978 25.7844C13.0978 25.7844 14.1531 27.3358 14.3645 27.8467C14.5837 28.3545 14.6812 28.5558 14.6898 28.9606C14.6952 29.2156 14.43 29.5931 13.8302 29.6017C13.2311 29.6134 12.7834 28.8833 12.4527 28.2297C12.1189 27.5745 11.8459 26.5114 11.9106 26.0059C11.9761 25.4997 12.3965 25.1581 13.0978 25.7844Z" fill="#F9F2E3"/>
<path d="M7.75242 20.1042C7.75242 20.1042 9.14863 21.3639 9.47857 21.8117C9.81241 22.2547 9.95592 22.424 10.0589 22.8132C10.1236 23.0589 9.95592 23.4855 9.37014 23.6298C8.78592 23.7788 8.17909 23.1743 7.69705 22.619C7.21501 22.0581 6.69864 21.0964 6.64248 20.5917C6.58554 20.0847 6.91704 19.6612 7.75242 20.1042Z" fill="#F9F2E3"/>
<path d="M13.2787 26.2488C13.2787 26.2488 12.3256 27.9079 11.959 28.3416C11.5869 28.7737 11.4504 28.9539 11.0877 29.1528C10.856 29.2776 10.4013 29.2292 10.133 28.705C9.86622 28.1824 10.3319 27.4461 10.7819 26.8447C11.232 26.2402 12.0783 25.4985 12.565 25.3144C13.0517 25.1303 13.5416 25.3339 13.2787 26.2488Z" fill="#F9F2E3"/>
<path d="M10.1985 27.7828C10.1985 27.7828 9.59634 25.8757 9.53316 25.2767C9.4653 24.6815 9.42786 24.4444 9.54018 24.0131C9.6135 23.7409 9.99414 23.4047 10.6096 23.5412C11.2265 23.6831 11.459 24.5669 11.5978 25.343C11.739 26.1222 11.6961 27.3195 11.4777 27.8421C11.2577 28.3639 10.7266 28.6229 10.1985 27.7828Z" fill="#FCF8F0"/>
<path d="M6.35077 27.4412C6.35077 27.4412 4.85394 26.2993 4.49046 25.8835C4.1223 25.4616 3.96553 25.3063 3.83215 24.928C3.74635 24.6862 3.88128 24.2533 4.4538 24.0599C5.0271 23.8696 5.68154 24.4249 6.20414 24.9374C6.7283 25.4584 7.32342 26.3788 7.41936 26.8749C7.51686 27.3733 7.21969 27.8195 6.35077 27.4412Z" fill="#F9F2E3"/>
<path d="M6.78756 22.3747C6.78756 22.3747 6.19243 24.1835 5.91709 24.6773C5.64331 25.171 5.54347 25.3762 5.22835 25.6398C5.02789 25.8083 4.56614 25.8496 4.19408 25.3933C3.8228 24.9386 4.134 24.1289 4.4538 23.4511C4.77204 22.7756 5.45222 21.8818 5.89526 21.608C6.33674 21.3295 6.86011 21.434 6.78756 22.3747Z" fill="#F9F2E3"/>
<path d="M12.8817 26.0732C12.8817 26.0732 11.3732 27.4686 10.849 27.7916C10.3272 28.1168 10.1275 28.2603 9.68215 28.35C9.40057 28.4085 8.93803 28.2206 8.81713 27.6114C8.69701 27.0014 9.41696 26.3977 10.0729 25.9235C10.7344 25.4492 11.8513 24.9508 12.4223 24.9134C12.9901 24.8751 13.4449 25.2316 12.8817 26.0732Z" fill="white"/>
<path d="M3.31733 27.6006C3.31733 27.6006 2.02254 26.0749 1.73472 25.557C1.44612 25.0282 1.31663 24.8277 1.25969 24.3917C1.22147 24.1156 1.45079 23.6624 2.07947 23.5618C2.70737 23.4619 3.26507 24.1866 3.69329 24.848C4.12385 25.5087 4.54116 26.6225 4.5357 27.1825C4.52946 27.7426 4.13243 28.177 3.31733 27.6006Z" fill="white"/>
<path d="M7.32421 23.3634C7.32421 23.3634 8.47161 25.0029 8.70873 25.5528C8.94741 26.1012 9.05737 26.3133 9.07609 26.7548C9.08779 27.0348 8.81637 27.4638 8.18379 27.5083C7.54731 27.552 7.06449 26.7813 6.69867 26.0825C6.33051 25.3836 6.02005 24.2346 6.07699 23.6746C6.13159 23.1153 6.56527 22.7168 7.32421 23.3634Z" fill="white"/>
<path d="M39.6022 31.2296C39.6022 31.2296 40.918 29.8583 41.2277 29.3825C41.5342 28.9067 41.6668 28.7266 41.7542 28.3194C41.8111 28.0651 41.6309 27.64 41.0561 27.5254C40.4773 27.4115 39.9103 28.0628 39.4594 28.6642C39.0094 29.2616 38.539 30.2803 38.5016 30.799C38.4634 31.3169 38.7988 31.7335 39.6022 31.2296Z" fill="#F9F2E3"/>
<path d="M33.9082 31.0363C33.9082 31.0363 35.685 30.4248 36.1663 30.1456C36.6491 29.8632 36.8488 29.7642 37.1046 29.4436C37.2661 29.2408 37.2942 28.779 36.8262 28.407C36.3636 28.0372 35.5688 28.3539 34.9066 28.6807C34.2436 29.006 33.377 29.6963 33.1142 30.1425C32.8544 30.591 32.9706 31.1175 33.9082 31.0363Z" fill="#F9F2E3"/>
<path d="M45.3859 30.2709C45.3859 30.2709 47.1643 29.661 47.6502 29.3794C48.1284 29.0978 48.3304 28.9964 48.587 28.6758C48.7461 28.4762 48.775 28.0121 48.3093 27.6423C47.8413 27.2734 47.0489 27.5893 46.3866 27.9169C45.7213 28.2429 44.8578 28.9301 44.5965 29.3739C44.336 29.824 44.4538 30.3513 45.3859 30.2709Z" fill="#F9F2E3"/>
<path d="M39.1693 26.8468C39.1693 26.8468 40.8205 27.7563 41.3509 27.9232C41.8806 28.0886 42.0911 28.1697 42.4921 28.1416C42.7456 28.1213 43.0903 27.8234 43.0303 27.2204C42.9718 26.6191 42.1988 26.2431 41.5147 25.9709C40.8307 25.6994 39.748 25.5247 39.2559 25.637C38.7621 25.7517 38.4704 26.201 39.1693 26.8468Z" fill="#F9F2E3"/>
<path d="M39.6591 26.2889C39.6591 26.2889 37.66 26.2468 37.0703 26.3521C36.4814 26.4597 36.2466 26.4886 35.8652 26.7195C35.6273 26.8661 35.4136 27.3255 35.731 27.8809C36.0462 28.4339 36.9549 28.4019 37.7388 28.3192C38.5234 28.2389 39.6544 27.8551 40.0881 27.4987C40.5218 27.1407 40.6154 26.5549 39.6591 26.2889Z" fill="#FCF8F0"/>
<path d="M45.8952 31.1964C45.8952 31.1964 44.6168 29.6115 44.1535 29.223C43.6909 28.8338 43.517 28.6661 43.0989 28.5241C42.8337 28.4337 42.3548 28.5709 42.1559 29.1754C41.9546 29.7831 42.5701 30.4726 43.1441 31.0287C43.7206 31.5864 44.74 32.2182 45.286 32.3227C45.8351 32.4265 46.3242 32.1145 45.8952 31.1964Z" fill="#FCF8F0"/>
<path d="M35.3871 28.5079C35.3871 28.5079 37.2575 29.2372 37.8456 29.3393C38.4361 29.4407 38.6701 29.4977 39.1014 29.4103C39.3737 29.3518 39.7262 28.9922 39.6092 28.3643C39.4907 27.7349 38.6248 27.4463 37.8565 27.2567C37.0937 27.0664 35.9011 27.0321 35.3762 27.2201C34.8497 27.4081 34.5728 27.9268 35.3871 28.5079Z" fill="#FCF8F0"/>
<path d="M45.3141 28.3678C45.3141 28.3678 47.1845 29.0963 47.775 29.1985C48.3639 29.3023 48.5963 29.3569 49.03 29.2695C49.3022 29.2133 49.6501 28.8514 49.5362 28.2259C49.4216 27.5933 48.5503 27.3055 47.7883 27.1151C47.0184 26.924 45.8297 26.8944 45.3063 27.0824C44.7775 27.2688 44.5006 27.7867 45.3141 28.3678Z" fill="#FCF8F0"/>
<path d="M38.0274 30.1356C38.0274 30.1356 36.2279 31.0389 35.7529 31.4109C35.2755 31.7822 35.0759 31.9187 34.8387 32.304C34.6937 32.5451 34.7108 33.0575 35.2334 33.4015C35.756 33.7431 36.5532 33.2931 37.2169 32.85C37.8784 32.4039 38.7153 31.5357 38.9415 31.0124C39.1708 30.4898 38.9953 29.925 38.0274 30.1356Z" fill="#FCF8F0"/>
<path d="M43.9101 27.3826C43.9101 27.3826 45.7447 27.7703 46.3 27.7757C46.8546 27.7812 47.073 27.7976 47.4513 27.6525C47.6916 27.5558 47.9388 27.1728 47.7142 26.612C47.4927 26.0519 46.6495 25.9178 45.9171 25.86C45.1854 25.7976 44.0997 25.949 43.6566 26.2001C43.2159 26.4521 43.0591 26.9739 43.9101 27.3826Z" fill="#F9F2E3"/>
<path d="M50.2289 28.5087C50.2289 28.5087 48.25 28.8059 47.69 29.0118C47.1222 29.2177 46.8936 29.284 46.5598 29.5765C46.3445 29.7637 46.2111 30.2543 46.605 30.7442C47.0036 31.2379 47.8975 31.0538 48.658 30.8393C49.4169 30.6225 50.4738 30.0578 50.8412 29.6295C51.2172 29.2005 51.2172 28.6109 50.2289 28.5087Z" fill="#FCF8F0"/>
<path d="M47.8546 31.5604C47.8546 31.5604 45.9802 31.5456 45.4366 31.6525C44.8914 31.7586 44.6729 31.789 44.329 32.0058C44.1137 32.1423 43.9429 32.5736 44.2705 33.0799C44.5934 33.5837 45.4444 33.5448 46.1752 33.4574C46.9045 33.3693 47.9404 33.0034 48.3265 32.668C48.7133 32.3311 48.7648 31.7937 47.8546 31.5604Z" fill="#F9F2E3"/>
<path d="M50.4426 33.6917C50.4426 33.6917 51.0541 31.8657 51.1298 31.3033C51.2078 30.7355 51.2523 30.5116 51.1618 30.1084C51.1025 29.8525 50.764 29.5483 50.1954 29.7051C49.6275 29.858 49.3881 30.7019 49.236 31.4437C49.0831 32.1816 49.0878 33.3103 49.2726 33.7954C49.4583 34.2798 49.9333 34.5037 50.4426 33.6917Z" fill="#F9F2E3"/>
<path d="M44.3032 26.0719C44.3032 26.0719 42.4226 26.7707 41.9102 27.0882C41.3962 27.4018 41.1871 27.5141 40.9149 27.8713C40.741 28.0967 40.7043 28.6069 41.1895 29.007C41.6723 29.4064 42.517 29.0444 43.2167 28.6755C43.9179 28.3081 44.8422 27.5367 45.1253 27.0406C45.4061 26.5453 45.2907 25.9666 44.3032 26.0719Z" fill="white"/>
<path d="M40.8845 33.6244C40.8845 33.6244 42.4313 32.3241 42.8135 31.8475C43.1957 31.3733 43.3595 31.1939 43.4999 30.7657C43.5927 30.4935 43.4608 30.0013 42.8758 29.7899C42.2877 29.5785 41.6123 30.208 41.0678 30.7953C40.5218 31.3827 39.9009 32.4286 39.7972 32.9902C39.6903 33.555 39.9875 34.0565 40.8845 33.6244Z" fill="white"/>
<path d="M34.7381 31.6089C34.7381 31.6089 36.2856 30.3063 36.6662 29.8344C37.0477 29.357 37.2115 29.1768 37.355 28.7494C37.4462 28.478 37.316 27.9858 36.7302 27.7728C36.1452 27.5607 35.4666 28.1901 34.923 28.7783C34.3785 29.3664 33.7576 30.4108 33.6484 30.974C33.5423 31.5363 33.8395 32.0441 34.7381 31.6089Z" fill="white"/>
<path d="M57.1022 31.0841C57.1022 31.0841 55.2263 30.365 54.6398 30.2667C54.0477 30.1645 53.8145 30.1115 53.3816 30.2012C53.111 30.2589 52.7623 30.6224 52.8816 31.2487C53.001 31.8782 53.8683 32.1636 54.6398 32.3493C55.4018 32.538 56.5929 32.5622 57.1194 32.3711C57.6443 32.1824 57.9205 31.6613 57.1022 31.0841Z" fill="#FCF8F0"/>
<path d="M52.2483 30.9488C52.2483 30.9488 52.8598 29.1236 52.9347 28.5612C53.0135 27.9934 53.0572 27.7703 52.9667 27.3671C52.9074 27.1112 52.5697 26.807 52.0003 26.963C51.4324 27.1167 51.193 27.9599 51.0409 28.7016C50.8888 29.4395 50.8934 30.569 51.0783 31.0533C51.2639 31.5377 51.739 31.7616 52.2483 30.9488Z" fill="#F9F2E3"/>
<path d="M55.1242 28.3761C55.1242 28.3761 56.9969 28.4393 57.5445 28.3488C58.0921 28.256 58.3152 28.2326 58.6623 28.0267C58.8791 27.8933 59.0616 27.4698 58.7496 26.9557C58.4384 26.4417 57.5843 26.455 56.855 26.5236C56.1226 26.5923 55.0782 26.9284 54.6843 27.2529C54.2896 27.5797 54.2194 28.1172 55.1242 28.3761Z" fill="#F9F2E3"/>
<path d="M55.6101 26.3322C55.6101 26.3322 54.0259 25.0787 53.4893 24.8057C52.9581 24.5312 52.7483 24.4079 52.3107 24.3635C52.0346 24.3354 51.5978 24.5756 51.5315 25.2144C51.4652 25.847 52.214 26.3837 52.891 26.7955C53.5735 27.2089 54.7037 27.5934 55.2583 27.5708C55.816 27.5474 56.2286 27.1348 55.6101 26.3322Z" fill="white"/>
<path d="M53.189 30.7899C53.189 30.7899 55.0781 30.1098 55.5937 29.7962C56.107 29.4834 56.3183 29.3719 56.596 29.0217C56.7715 28.7947 56.8129 28.2877 56.3293 27.886C55.8465 27.4765 55.004 27.8337 54.2997 28.1941C53.5922 28.5545 52.6609 29.3212 52.3755 29.8142C52.09 30.3048 52.2031 30.8874 53.189 30.7899Z" fill="white"/>
<path d="M61.9601 26.5369C61.9601 26.5369 59.9586 26.6047 59.3783 26.7443C58.7972 26.884 58.5601 26.9237 58.1958 27.1749C57.9642 27.3348 57.777 27.8075 58.1194 28.3433C58.4602 28.8784 59.3689 28.7981 60.1482 28.6709C60.9282 28.5438 62.0334 28.1015 62.4507 27.7186C62.8657 27.3379 62.9273 26.749 61.9601 26.5369Z" fill="#FCF8F0"/>
<path d="M63.8758 25.1689C63.8758 25.1689 62.5037 26.6665 62.1808 27.1867C61.8665 27.7078 61.7237 27.9082 61.6364 28.3528C61.581 28.6336 61.7736 29.1071 62.3781 29.2366C62.9865 29.3676 63.5809 28.6531 64.045 27.9995C64.513 27.3435 64.9982 26.2227 65.0341 25.6517C65.0668 25.08 64.7096 24.6166 63.8758 25.1689Z" fill="#FCF8F0"/>
<path d="M59.2395 28.8293C59.2395 28.8293 57.369 28.9323 56.8308 29.0703C56.2973 29.2123 56.0758 29.2552 55.7466 29.4923C55.5384 29.6452 55.3933 30.0828 55.7482 30.5687C56.1031 31.0515 56.9517 30.9618 57.6756 30.8277C58.3939 30.6919 59.408 30.2668 59.7746 29.9057C60.1412 29.5453 60.1614 29.0048 59.2395 28.8293Z" fill="#F9F2E3"/>
<path d="M59.84 30.5899C59.84 30.5899 61.7955 30.1687 62.3485 29.9277C62.8961 29.6859 63.1223 29.6032 63.4413 29.2912C63.6449 29.0931 63.7471 28.5931 63.3188 28.1267C62.8945 27.6641 62.0147 27.9005 61.2659 28.1657C60.5194 28.4301 59.5023 29.0619 59.156 29.5135C58.8104 29.9628 58.8502 30.5525 59.84 30.5899Z" fill="white"/>
<path d="M61.443 26.0209C61.443 26.0209 63.3992 26.4288 64.0014 26.4335C64.5957 26.4366 64.836 26.453 65.2478 26.2947C65.5076 26.1956 65.7977 25.7783 65.5809 25.1769C65.3726 24.5755 64.4701 24.4359 63.6839 24.3751C62.8961 24.3142 61.7207 24.4796 61.2269 24.751C60.7386 25.0256 60.5429 25.5833 61.443 26.0209Z" fill="white"/>
<path d="M69.3568 26.8799C69.3568 26.8799 67.5574 25.9845 66.9786 25.8277C66.4006 25.6717 66.1737 25.5945 65.7345 25.6436C65.4561 25.6725 65.0809 26.0001 65.1425 26.6389C65.2002 27.2762 66.0418 27.6396 66.7875 27.9017C67.5355 28.1615 68.7164 28.3026 69.257 28.163C69.7967 28.0242 70.1173 27.5328 69.3568 26.8799Z" fill="#FCF8F0"/>
<path d="M67.41 31.045C67.41 31.045 69.2749 31.2042 69.8256 31.1394C70.3779 31.0755 70.5994 31.0638 70.9551 30.8727C71.1805 30.7518 71.3841 30.336 71.0947 29.8087C70.8108 29.2807 69.959 29.2503 69.2242 29.2838C68.4895 29.3127 67.4318 29.5981 67.0239 29.9008C66.6136 30.2065 66.5192 30.7393 67.41 31.045Z" fill="#F9F2E3"/>
<path d="M70.1095 27.9027C70.1095 27.9027 70.8271 29.685 71.1337 30.16C71.441 30.6366 71.5518 30.8339 71.8802 31.0726C72.0908 31.2263 72.5369 31.2185 72.8653 30.7162C73.1898 30.2123 72.8216 29.4175 72.4628 28.7623C72.0977 28.1032 71.3692 27.26 70.92 27.0252C70.4676 26.7904 69.966 26.9495 70.1095 27.9027Z" fill="#F9F2E3"/>
<path d="M72.9089 21.3499C72.9089 21.3499 70.909 21.417 70.3271 21.5566C69.7468 21.6962 69.5097 21.7368 69.1454 21.9871C68.913 22.147 68.7258 22.6197 69.0682 23.1564C69.4091 23.6907 70.3178 23.6103 71.0978 23.4824C71.8778 23.3568 72.9831 22.9146 73.3996 22.5316C73.8153 22.1502 73.8769 21.5613 72.9089 21.3499Z" fill="#FCF8F0"/>
<path d="M70.1883 23.6403C70.1883 23.6403 68.3187 23.7433 67.7805 23.8821C67.2469 24.0241 67.0246 24.067 66.6963 24.3041C66.4888 24.457 66.3429 24.8946 66.6978 25.3813C67.0519 25.8633 67.9014 25.7736 68.6236 25.6395C69.3444 25.5045 70.3576 25.0779 70.7242 24.7175C71.0908 24.3572 71.1111 23.8166 70.1883 23.6403Z" fill="#F9F2E3"/>
<path d="M67.9856 25.876C67.9856 25.876 66.878 27.436 66.6424 27.9539C66.4123 28.4671 66.3047 28.6707 66.2774 29.0833C66.2626 29.3462 66.4974 29.7362 67.0878 29.7604C67.6713 29.7853 68.1408 29.0529 68.4996 28.3922C68.8529 27.73 69.1727 26.6513 69.1353 26.1318C69.0939 25.6115 68.7024 25.2527 67.9856 25.876Z" fill="#F9F2E3"/>
<path d="M64.6199 26.9605C64.6199 26.9605 64.304 28.8637 64.318 29.4346C64.3336 30.004 64.3243 30.2341 64.4787 30.6148C64.577 30.855 64.96 31.0992 65.4958 30.848C66.0309 30.5992 66.1346 29.7295 66.1682 28.9737C66.197 28.2171 66.0184 27.1063 65.7571 26.6594C65.4958 26.2109 64.9904 26.0721 64.6199 26.9605Z" fill="#F9F2E3"/>
<path d="M73.8528 27.2856C73.8528 27.2856 73.9994 25.3597 73.9331 24.7927C73.8683 24.2272 73.859 23.9971 73.6718 23.6297C73.5525 23.398 73.1476 23.1945 72.6336 23.4877C72.1235 23.7896 72.0977 24.664 72.1344 25.4213C72.1648 26.1748 72.4464 27.266 72.7444 27.6888C73.0415 28.1092 73.5587 28.2021 73.8528 27.2856Z" fill="#F9F2E3"/>
<path d="M73.5587 28.1715C73.5587 28.1715 72.3809 26.5101 71.9425 26.0928C71.501 25.674 71.3357 25.4961 70.9278 25.3253C70.6696 25.2185 70.1867 25.3253 69.9512 25.9166C69.7148 26.5101 70.2881 27.2394 70.8255 27.8307C71.3676 28.4227 72.3473 29.1177 72.8887 29.2557C73.4292 29.3954 73.9339 29.1177 73.5587 28.1715Z" fill="white"/>
<path d="M70.7889 25.4017C70.7889 25.4017 72.7452 24.9798 73.2982 24.7395C73.8465 24.4977 74.072 24.415 74.391 24.103C74.5946 23.9049 74.6959 23.4049 74.2685 22.9393C73.8442 22.4767 72.9643 22.7123 72.2163 22.9775C71.4699 23.2411 70.4512 23.8737 70.1057 24.3253C69.7593 24.7754 69.7991 25.3651 70.7889 25.4017Z" fill="white"/>
<path d="M18.309 28.9559C18.309 28.9559 16.3098 29.0253 15.7303 29.1657C15.1437 29.3022 14.9105 29.3428 14.5439 29.5947C14.3146 29.757 14.1258 30.2289 14.469 30.7624C14.8075 31.2959 15.7194 31.2203 16.4986 31.09C17.2762 30.9644 18.3831 30.5222 18.7988 30.1407C19.2169 29.7593 19.2762 29.1704 18.309 28.9559Z" fill="#FCF8F0"/>
<path d="M20.7644 26.8184C20.7644 26.8184 19.6568 28.3791 19.422 28.8971C19.1912 29.4103 19.0843 29.6131 19.057 30.0257C19.0414 30.2894 19.2762 30.6794 19.8674 30.7035C20.4501 30.7285 20.9196 29.9961 21.2784 29.3346C21.6318 28.6724 21.9516 27.5937 21.9141 27.0742C21.8728 26.5547 21.4812 26.1951 20.7644 26.8184Z" fill="#F9F2E3"/>
<path d="M17.3995 27.9031C17.3995 27.9031 17.0828 29.8078 17.0968 30.3772C17.1124 30.9466 17.1031 31.1767 17.2575 31.5581C17.3566 31.7992 17.7388 32.0425 18.2739 31.7906C18.8097 31.5433 18.9134 30.6721 18.9478 29.917C18.9766 29.1604 18.7972 28.0489 18.5367 27.602C18.2738 27.1543 17.7692 27.0146 17.3995 27.9031Z" fill="#F9F2E3"/>
</svg>
