<svg width="152" height="214" viewBox="0 0 152 214" fill="none" xmlns="http://www.w3.org/2000/svg">
<path d="M72 31.5964C64.9 31.5964 55.8 21.6964 53.8 18.3964C50.4 12.5964 52.3 5.19638 58.1 1.69639C60.9 -0.00361502 64.2 -0.403633 67.3 0.396367C70.4 1.19637 73.1 3.19637 74.7 5.99637C77 9.79637 82.4 26.3964 75.2 30.6964C74.2 31.2964 73.1 31.5964 72 31.5964ZM64.2 6.79636C63.2 6.79636 62.3 7.09638 61.5 7.59638C58.9 9.09638 58.1 12.3964 59.6 14.9964C61.9 18.7964 69.4 24.8964 71.7 24.8964C72.8 22.7964 71.1 13.2964 68.8 9.49637C68.1 8.29637 66.9 7.39637 65.5 6.99637C65.1 6.89637 64.7 6.79636 64.2 6.79636Z" fill="#E6B8BA"/>
<path d="M79.8 31.5963C78.6 31.5963 77.5 31.2963 76.5 30.6963C69.3 26.3963 74.8 9.79627 77 5.99627C78.7 3.19627 81.3 1.19627 84.4 0.396266C87.5 -0.403734 90.8 0.0962842 93.6 1.69628C99.4 5.09628 101.3 12.5963 97.9 18.3963C96.3 20.9963 92.8 24.6963 89.3 27.3963C85.7 30.1963 82.5 31.5963 79.8 31.5963ZM87.5 6.79626C87.1 6.79626 86.6 6.89627 86.2 6.99627C84.8 7.39627 83.6 8.19627 82.9 9.49627C80.6 13.2963 78.9 22.7963 80 24.8963C82.4 24.8963 89.9 18.8963 92.1 14.9963C92.8 13.7963 93 12.2963 92.7 10.8963C92.3 9.49627 91.5 8.29628 90.2 7.59628C89.4 7.09628 88.5 6.79626 87.5 6.79626Z" fill="#E6B8BA"/>
<path d="M145.6 25.0964H6.60001V213.696H145.6V25.0964Z" fill="#FBDE8E"/>
<path d="M151.3 25.0964H0V42.7964H151.3V25.0964Z" fill="#FFEEC2"/>
<path d="M80.5 25.0964H71.7V125.796H80.5V25.0964Z" fill="#FC9A42"/>
<path d="M80.5 24.9963H71.7V213.696H80.5V24.9963Z" fill="#E6B8BA"/>
<path d="M145.593 79.8508V71.0508L6.59332 71.0508V79.8508L145.593 79.8508Z" fill="#E6B8BA"/>
</svg>
