<svg width="71" height="80" viewBox="0 0 71 80" fill="none" xmlns="http://www.w3.org/2000/svg">
<path d="M32.7734 27.2779C27.6211 27.9806 20.6401 20.4549 19.1989 18.0274C16.7217 13.9245 18.1133 8.58752 22.1306 6.22296C26.2335 3.7458 31.5705 5.13736 33.935 9.15468C35.5159 11.8659 39.5425 23.6297 34.4038 26.6518C33.9489 27.0166 33.3679 27.1968 32.7734 27.2779ZM26.0534 9.82591C25.558 9.89348 25.0761 10.0601 24.6077 10.3258C22.8333 11.3753 22.2523 13.7758 23.3017 15.5502C24.8826 18.2615 30.3008 22.4679 31.9266 22.5489C32.7283 21.0266 31.5121 14.3296 29.8321 11.6318C29.0349 10.2267 27.5397 9.62321 26.0534 9.82591Z" fill="white"/>
<path d="M38.5157 27.2012C37.4258 27.3499 36.3944 27.1878 35.4081 26.6158C33.1112 25.3143 32.3815 22.1842 33.0615 17.5498C33.5478 14.4557 34.5881 10.9832 35.7455 9.10964C36.8895 7.13696 38.808 5.66418 41.0599 5.15521C43.2983 4.54715 45.5727 4.94345 47.6445 6.07386C49.6171 7.21778 51.0899 9.13634 51.5989 11.3882C52.207 13.6266 51.8106 15.901 50.6802 17.9728C49.2526 20.0851 43.3708 26.5391 38.5157 27.2012ZM37.8806 22.5444C39.592 22.5128 44.8659 18.2611 46.5097 15.5138C46.9961 14.64 47.1582 13.6087 46.924 12.6314C46.6897 11.6541 46.0727 10.8299 45.1855 10.2444C44.3118 9.758 43.2804 9.59589 42.3031 9.83011C41.3258 10.0643 40.5016 10.6814 39.9161 11.5686C38.1732 14.3295 36.9708 21.0536 37.8806 22.5444Z" fill="white"/>
<path d="M8.99329 28.0738L9.21634 72.8738L61.1163 72.6154L60.8933 27.8154L8.99329 28.0738Z" fill="#D6E8F7"/>
<path d="M64.1626 21.9509L5.56262 22.2427L5.62087 33.9427L64.2209 33.6509L64.1626 21.9509Z" fill="#B3D7FF"/>
<path d="M37.5986 22.049L32.1986 22.0759L32.4505 72.6759L37.8505 72.649L37.5986 22.049Z" fill="white"/>
<path d="M60.9816 49.9739L60.9547 44.574L9.05473 44.8324L9.08162 50.2323L60.9816 49.9739Z" fill="white"/>
</svg>
