<svg width="43" height="45" viewBox="0 0 43 45" fill="none" xmlns="http://www.w3.org/2000/svg">
<path d="M38.8084 1.50494C36.1656 -0.345032 32.7299 -0.521241 29.999 1.15254C22.2467 5.82152 12.9088 11.3715 5.59697 23.4403C3.65891 26.6998 2.24941 29.9593 1.36847 32.9545C4.71604 34.364 8.68026 35.7735 12.1159 36.7425C15.904 33.1307 20.1325 28.9021 24.0967 25.5546C28.0609 22.1189 33.787 18.1547 38.6322 14.8071C43.3893 11.6357 43.3893 4.76442 38.8084 1.50494Z" fill="white"/>
<path d="M12.1159 36.7426C8.59212 35.7736 4.80408 34.4521 1.36842 33.0426C-0.833933 40.0901 -0.21728 45.2877 2.07316 44.8472C3.92314 44.4067 7.71118 40.9711 12.1159 36.7426Z" fill="#F5B166"/>
</svg>
