<svg width="54" height="50" viewBox="0 0 54 50" fill="none" xmlns="http://www.w3.org/2000/svg">
<path d="M46.7856 36.9012C46.3188 34.1548 45.4571 31.0799 44.2337 28.0383C36.572 9.56039 20.5493 3.07178 12.5874 0.949375C9.92894 0.270926 7.13501 1.62176 6.10832 4.22638C5.22253 6.49622 5.80329 9.08195 7.70428 10.6238C12.3095 14.2775 20.6764 21.2761 25.568 27.1134C28.8871 31.014 32.3463 35.7384 35.4375 39.9602C39.1218 39.1927 43.1211 38.1174 46.7856 36.9012Z" fill="white"/>
<path d="M44.1107 49.5909C43.9366 49.564 43.7023 49.3495 43.4546 49.222C43.7023 49.3495 43.95 49.4769 44.1107 49.5909Z" fill="white"/>
<path d="M44.8208 49.6117L44.7336 49.5982C44.7202 49.6854 44.7336 49.5982 44.8208 49.6117Z" fill="white"/>
<path d="M46.7859 36.901C48.2132 44.9661 46.4677 50.4903 44.1107 49.5911C42.3363 48.9602 39.1447 44.812 35.3776 39.7725C39.2226 39.119 43.0343 38.1038 46.7859 36.901Z" fill="#F5B166"/>
</svg>
