<svg width="99" height="103" viewBox="0 0 99 103" fill="none" xmlns="http://www.w3.org/2000/svg">
<path d="M52.2954 4.27462L57.2242 0.258656C57.7718 -0.197705 58.502 -0.0151715 58.7758 0.532461L61.7878 6.10007L57.0416 9.38587L52.2954 4.27462Z" fill="#EA6AB3"/>
<path d="M56.5852 7.74257L51.3827 1.44479C50.8351 0.80589 49.7398 1.07971 49.5573 1.90116L47.0017 12.1236C45.9977 16.596 48.6446 20.977 53.0256 22.0723C57.4067 23.1676 61.7877 20.4294 62.9743 16.0483L65.5299 5.82585C65.7124 5.0044 64.891 4.27423 64.1608 4.63932L56.5852 7.74257Z" fill="#F784C1"/>
<path d="M46.3627 64.6972C46.3627 64.6972 42.3468 42.7919 50.7438 30.3789C59.1409 17.9658 69.3633 8.19971 69.3633 8.19971C69.3633 8.19971 68.8157 18.9698 61.9703 31.8392C55.2162 44.7998 46.3627 64.6972 46.3627 64.6972Z" fill="#92C927"/>
<path d="M76.2087 10.8469L81.1375 6.83091C81.6851 6.37455 82.4153 6.55711 82.6891 7.10475L85.7011 12.6723L80.9549 15.9581L76.2087 10.8469Z" fill="#9E3CB5"/>
<path d="M80.4985 14.224L75.296 7.92624C74.7484 7.28734 73.6531 7.56115 73.4706 8.3826L70.915 18.6051C69.911 23.0774 72.5578 27.4585 76.9389 28.5538C81.32 29.649 85.701 26.9108 86.8876 22.5298L89.4432 12.3073C89.6257 11.4858 88.8043 10.7557 88.0741 11.1208L80.4985 14.224Z" fill="#B955CE"/>
<path d="M43.5333 66.7965C43.5333 66.7965 48.7358 39.5974 62.0616 31.9306C75.3873 24.2637 83.6018 20.7041 83.6018 20.7041C83.6018 20.7041 81.1374 32.2957 69.8197 41.6967C58.5932 51.0065 43.5333 66.7965 43.5333 66.7965Z" fill="#92C927"/>
<path d="M22.2669 10.2069L24.4574 2.26619C24.6399 1.44474 25.5527 1.07965 26.3742 1.44474L33.7672 5.09563L31.3028 12.0323L22.2669 10.2069Z" fill="#9E3CB5"/>
<path d="M29.3861 10.5726L19.1636 7.9257C18.0684 7.65188 17.1557 8.65588 17.612 9.75114L22.632 22.438C24.9138 27.9143 31.029 30.5612 36.4141 28.3707C41.7992 26.2714 44.4461 20.0649 42.3468 14.5886L37.3268 1.90173C36.9617 0.897739 35.5014 0.715183 34.9537 1.71918L29.3861 10.5726Z" fill="#B955CE"/>
<path d="M3.92117 26.8187L4.19503 20.2471C4.19503 19.6082 4.83391 19.0606 5.47281 19.2431L11.8619 20.7035L11.1317 26.5449L3.92117 26.8187Z" fill="#9E3CB5"/>
<path d="M9.4888 25.8148L1.09175 25.541C0.179033 25.541 -0.277328 26.4537 0.179033 27.1839L6.29428 36.1285C9.03244 39.962 14.2349 40.966 17.9771 38.3191C21.8105 35.6722 22.7233 30.4697 20.1677 26.6362L14.0524 17.6916C13.5961 16.9614 12.4095 17.1439 12.1357 17.9654L9.4888 25.8148Z" fill="#B955CE"/>
<path d="M51.2914 69.8085C51.2914 69.8085 37.3268 44.6174 41.0689 27.9146C44.8111 11.2118 44.1722 1.81079 44.1722 1.81079C44.1722 1.81079 51.5653 12.7634 50.7438 29.1012C49.9224 45.3476 51.2914 69.8085 51.2914 69.8085Z" fill="#92C927"/>
<path d="M41.4341 66.7051C41.4341 66.7051 24.64 50.4587 21.628 35.7638C18.616 21.069 17.612 10.4814 17.612 10.4814C17.612 10.4814 28.656 25.5414 33.037 39.4147C37.5094 53.3794 41.4341 66.7051 41.4341 66.7051Z" fill="#92C927"/>
<path d="M89.8077 28.5859L89.899 21.0103C89.899 20.2801 89.26 19.6412 88.4386 19.8237L81.0456 21.1015L81.5019 27.8557L89.8077 28.5859Z" fill="#EA6AB3"/>
<path d="M83.7837 26.7605L93.5499 26.8518C94.5538 26.8518 95.1015 28.0383 94.4626 28.8597L86.6131 39.0822C83.1448 43.4633 77.0296 44.2848 72.8311 41.0902C68.6325 37.8957 67.9936 31.6892 71.2794 27.2169L79.1288 16.9944C79.7677 16.1729 81.0455 16.4468 81.3194 17.3595L83.7837 26.7605Z" fill="#F784C1"/>
<path d="M55.3987 70.7208C55.3987 70.7208 37.1443 53.8354 33.1283 39.4144C29.1123 24.9022 27.4695 16.5051 27.4695 16.5051C27.4695 16.5051 37.6919 23.5331 43.077 37.1326C48.462 50.6409 55.3987 70.7208 55.3987 70.7208Z" fill="#ABDD54"/>
<path d="M48.6445 72.6375C48.6445 72.6375 27.7432 60.4983 19.1636 48.1766C10.5841 35.8549 4.37753 30.6523 4.37753 30.6523C4.37753 30.6523 16.3342 31.2912 25.9178 42.3352C35.5014 53.3791 48.6445 72.6375 48.6445 72.6375Z" fill="#92C927"/>
<path d="M54.3034 75.8322C54.3034 75.8322 62.1528 49.9109 74.3833 41.0575C86.6137 32.2954 98.2053 31.7478 98.2053 31.7478C98.2053 31.7478 90.721 37.6805 79.8596 47.4466C69.0895 57.2127 54.3034 75.8322 54.3034 75.8322Z" fill="#ABDD54"/>
<path d="M82.2327 94.9991L83.4193 44.0692L15.9691 42.5176L14.7826 93.4474C14.6913 97.5547 17.8859 100.84 21.9931 100.932L74.6571 102.118C78.7644 102.301 82.1415 99.1063 82.2327 94.9991Z" fill="#E75654"/>
<path d="M82.7838 73.1426L15.3018 71.2224L15.0292 80.8022L82.5112 82.7224L82.7838 73.1426Z" fill="#E1EFFF"/>
</svg>
