<svg width="103" height="60" viewBox="0 0 103 60" fill="none" xmlns="http://www.w3.org/2000/svg">
<path d="M57.9 10.7963C57.4 10.7963 56.9 10.7963 56.4 10.7963C53.2 10.6963 48.8 10.9963 43.8 10.8963C42.6 10.8963 41.4 10.6963 40.2 10.3963L40 6.09632C39.9 4.69632 38.6 3.79632 37.2 4.19632L30.6 6.39632L30.4 1.79632C30.3 0.596316 29.1 -0.303683 27.9 0.0963168L15.6 3.89632C8.50004 5.39632 2.7 10.8963 1 18.2963C-0.9 26.7963 3.60002 34.3963 10.9 38.5963C9.70002 42.6963 9.00001 46.9963 8.70001 51.1963H4.30005C2.00005 51.1963 0 53.0963 0 55.4963C0 57.8963 1.90005 59.7963 4.30005 59.7963H8.40002H9.60004H101.4C106.5 42.1963 94.9 10.7963 57.9 10.7963Z" fill="#F79945"/>
<path d="M73.4 31.3963C55.9 29.8963 48 41.0963 45.5 51.8963H36.6C34.4 51.8963 32.6 53.6963 32.6 55.8963C32.6 58.0963 34.4 59.8963 36.6 59.8963H44.5H66.3H90.9C93.5 49.5963 91.8 32.9963 73.4 31.3963Z" fill="#F3853B"/>
<path d="M27.3 18.2963C28 17.0963 27.5 15.4963 26.2 14.8963C24.9 14.2963 23.4 14.6963 22.7 15.8963" fill="#683839"/>
<path d="M15.1 11.9963C15.8 10.7963 15.3 9.19631 14 8.59631C12.7 7.99631 11.2 8.39631 10.5 9.59631" fill="#683839"/>
</svg>
